<?xml version="1.0" encoding="utf-8"?>
<!-- Generator: Adobe Illustrator 15.0.0, SVG Export Plug-In . SVG Version: 6.00 Build 0)  -->
<!DOCTYPE svg PUBLIC "-//W3C//DTD SVG 1.1//EN" "http://www.w3.org/Graphics/SVG/1.1/DTD/svg11.dtd">
<svg version="1.1" id="Layer_1" xmlns="http://www.w3.org/2000/svg" xmlns:xlink="http://www.w3.org/1999/xlink" x="0px" y="0px"
	 width="218px" height="85px" viewBox="0 0 218 85" enable-background="new 0 0 218 85" xml:space="preserve">
<g>
	<rect fill="#FFFFFF" width="218" height="85"/>
	<g>
		<path fill="#32276B" d="M30.929,67.275c-0.651-0.523-0.836-1.506-0.714-2.167c0.14-0.74,0.695-1.13,1.272-0.662
			c0.256,0.203,0.37,0.405,0.499,0.711l0.132-0.204l0.098,0.076l-0.279,1.142l-0.137-0.11c0.074-0.625,0.01-1.102-0.334-1.377
			c-0.323-0.262-0.619,0.062-0.759,0.815c-0.131,0.711-0.008,1.328,0.323,1.597c0.353,0.283,0.612,0.221,0.771-0.34l0.156,0.128
			C31.795,67.532,31.349,67.615,30.929,67.275"/>
		<path fill="#32276B" d="M33.277,68.714c-0.786-0.359-1.021-1.272-0.896-1.892c0.134-0.665,0.712-1.242,1.462-0.9
			c0.898,0.415,1.046,1.388,0.934,1.945C34.633,68.587,34.065,69.075,33.277,68.714 M33.832,66.15
			c-0.334-0.153-0.691,0.036-0.873,0.933c-0.188,0.947,0.116,1.305,0.395,1.436c0.411,0.189,0.697-0.171,0.832-0.843
			C34.355,66.832,34.18,66.31,33.832,66.15z"/>
		<path fill="#32276B" d="M37.657,69.096c-0.104-0.037-0.195-0.029-0.233,0.166l-0.217,0.971l-0.162-0.04l-0.118-0.377
			c-0.141,0.206-0.423,0.296-0.804,0.161c-0.725-0.258-1.077-1.024-0.914-1.805c0.156-0.746,0.801-1.288,1.547-1.022
			c0.337,0.119,0.525,0.316,0.643,0.529l0.174-0.24l0.124,0.033l-0.279,1.13l-0.157-0.043c0.058-0.535-0.04-1.011-0.499-1.173
			c-0.224-0.08-0.74-0.022-0.953,0.993c-0.164,0.784,0.085,1.264,0.462,1.397c0.301,0.105,0.434-0.018,0.523-0.193l0.101-0.429
			c0.041-0.194-0.031-0.259-0.136-0.297l-0.244-0.086l0.036-0.173l1.291,0.38l-0.035,0.17L37.657,69.096"/>
		<path fill="#32276B" d="M40.915,68.365c-0.11-0.018-0.195,0.004-0.211,0.205l-0.331,2.426l-0.308-0.052l-1.162-2.311l-0.263,1.61
			c-0.025,0.192,0.055,0.28,0.166,0.297l0.256,0.062l-0.029,0.182l-1.108-0.255l0.028-0.18l0.218,0.047
			c0.111,0.02,0.177-0.014,0.212-0.213l0.322-1.965c0.029-0.189-0.047-0.249-0.174-0.269l-0.216-0.05l0.028-0.17l0.852,0.17
			l1.073,2.138l0.168-1.515c0.016-0.199-0.065-0.252-0.174-0.27l-0.255-0.046l0.026-0.176l1.125,0.193l-0.026,0.178L40.915,68.365"
			/>
		<path fill="#32276B" d="M42.49,71.265c-0.866-0.064-1.231-0.885-1.18-1.552c0.054-0.71,0.586-1.501,1.413-1.438
			c0.996,0.074,1.273,0.989,1.228,1.587C43.892,70.631,43.361,71.333,42.49,71.265 M42.742,68.504
			c-0.37-0.026-0.72,0.296-0.793,1.255c-0.078,1.015,0.285,1.256,0.598,1.283c0.454,0.033,0.705-0.433,0.762-1.149
			C43.379,68.989,43.125,68.535,42.742,68.504z"/>
		<path fill="#32276B" d="M45.667,71.283c-0.418,0.018-0.625-0.13-0.773-0.339l-0.162,0.313l-0.125,0.007l0.014-1.223l0.164-0.009
			c0.069,0.574,0.279,1.058,0.858,1.032c0.23-0.008,0.443-0.164,0.445-0.413c0.007-0.842-1.513-0.239-1.502-1.521
			c0.004-0.27,0.235-0.801,0.883-0.827c0.354-0.016,0.555,0.107,0.707,0.285l0.129-0.317l0.121-0.007l-0.012,1.159l-0.172,0.004
			c-0.043-0.599-0.254-0.927-0.729-0.907c-0.348,0.014-0.468,0.266-0.47,0.445c-0.008,0.693,1.545,0.266,1.531,1.391
			C46.568,70.826,46.239,71.262,45.667,71.283"/>
		<path fill="#32276B" d="M48.62,70.992c-0.864,0.129-1.345-0.528-1.389-1.213c-0.048-0.771,0.432-1.657,1.183-1.749
			c0.334-0.044,0.536-0.003,0.754,0.144l0.092-0.3l0.125-0.022l0.081,1.236l-0.18,0.028c-0.087-0.607-0.363-0.946-0.811-0.867
			c-0.422,0.076-0.656,0.631-0.605,1.41c0.045,0.741,0.348,1.16,0.777,1.081c0.461-0.083,0.729-0.377,0.75-1.007l0.205-0.039
			C49.604,70.447,49.263,70.895,48.62,70.992"/>
		<path fill="#32276B" d="M51.135,67.729c-0.094,0.029-0.152,0.083-0.141,0.237l0.054,0.856l0.077-0.021
			c0.418-0.12,0.47-0.149,0.482-0.827l0.154-0.044l0.104,1.567l-0.155,0.044c-0.1-0.641-0.135-0.645-0.572-0.52l-0.075,0.023
			l0.064,0.979c0.01,0.163,0.078,0.163,0.164,0.14c0.181-0.045,0.291-0.076,0.549-0.158c0.414-0.119,0.5-0.318,0.52-1.086
			l0.162-0.044l0.113,1.093c-0.914,0.297-1.606,0.489-2.518,0.718l-0.012-0.183l0.247-0.063c0.104-0.03,0.185-0.094,0.174-0.3
			l-0.135-2.005c-0.011-0.202-0.097-0.213-0.202-0.183l-0.246,0.07l-0.011-0.182c0.888-0.237,1.734-0.479,2.349-0.669l0.112,1.065
			l-0.161,0.043c-0.117-0.733-0.338-0.783-0.679-0.686C51.385,67.645,51.232,67.702,51.135,67.729"/>
		<path fill="#32276B" d="M53.237,69.734l-0.025-0.178l0.253-0.096c0.099-0.043,0.156-0.12,0.128-0.319l-0.241-1.908
			c-0.025-0.192-0.11-0.192-0.205-0.149l-0.241,0.096l-0.023-0.173l1.635-0.747c0.426-0.193,0.795-0.035,0.849,0.369
			c0.036,0.283-0.12,0.673-0.444,0.867c0.303,0.068,0.402,0.221,0.477,0.809c0.023,0.168,0.109,0.181,0.177,0.144
			c0.065-0.036,0.11-0.106,0.097-0.222l-0.098-0.542l0.18-0.082l0.113,0.569c0.029,0.207-0.081,0.465-0.446,0.632
			c-0.283,0.127-0.559,0.079-0.605-0.269c-0.076-0.592-0.198-0.755-0.523-0.655l-0.245,0.113l0.123,0.98
			c0.022,0.161,0.083,0.166,0.163,0.129l0.322-0.133l0.024,0.177C54.228,69.36,53.712,69.564,53.237,69.734 M54.195,66.604
			l-0.198,0.093c-0.084,0.037-0.106,0.08-0.094,0.175l0.119,0.921l0.277-0.128c0.429-0.196,0.53-0.567,0.503-0.781
			C54.742,66.434,54.426,66.5,54.195,66.604z"/>
		<path fill="#32276B" d="M57.787,64.147l0.264,0.943l-0.133,0.101c-0.17-0.67-0.376-0.617-0.654-0.398
			c-0.146,0.113-0.233,0.186-0.356,0.286c-0.078,0.062-0.122,0.133-0.098,0.281l0.177,0.803l0.09-0.066
			c0.301-0.235,0.344-0.296,0.241-0.935l0.127-0.097l0.329,1.444l-0.125,0.097c-0.147-0.588-0.177-0.576-0.54-0.303l-0.087,0.068
			l0.185,0.925c0.024,0.156,0.08,0.126,0.154,0.079c0.117-0.072,0.384-0.286,0.501-0.379c0.28-0.215,0.338-0.465,0.234-1.194
			l0.132-0.101l0.265,1c-0.538,0.514-1.39,1.118-2.095,1.579l-0.027-0.174l0.214-0.14c0.112-0.087,0.145-0.153,0.11-0.36
			l-0.374-1.852c-0.03-0.189-0.113-0.213-0.201-0.146l-0.221,0.152l-0.045-0.163C56.389,65.228,57.189,64.621,57.787,64.147"/>
		<path fill="#32276B" d="M16.959,56.635c-0.187-0.236-0.286-0.587-0.141-0.881c0.24-0.497,0.25-0.762,0.061-1.062l-0.16-0.202
			l-0.426,0.767c-0.064,0.134-0.032,0.202,0.021,0.271l0.207,0.261l-0.072,0.15l-0.939-1.188l0.073-0.152l0.152,0.194
			c0.066,0.081,0.128,0.119,0.21-0.049l0.852-1.57c0.079-0.164,0.041-0.258-0.023-0.341l-0.153-0.192l0.071-0.146l1.054,1.332
			c0.276,0.352,0.367,0.886,0.202,1.225c-0.118,0.242-0.355,0.258-0.601,0.101c0.103,0.392,0.075,0.61-0.164,1.107
			c-0.07,0.146-0.049,0.224-0.005,0.28c0.043,0.056,0.095,0.057,0.142-0.04l0.228-0.473l0.149,0.187l-0.242,0.504
			C17.368,56.894,17.197,56.937,16.959,56.635 M17.442,53.696l-0.116-0.149c-0.055-0.067-0.085-0.061-0.124,0.018l-0.402,0.757
			l0.194,0.232c0.281,0.354,0.498,0.214,0.586,0.028C17.763,54.205,17.592,53.888,17.442,53.696z"/>
		<path fill="#32276B" d="M17.442,57.139l0.083-0.158l0.186,0.156c0.082,0.065,0.155,0.09,0.25-0.086l0.906-1.704
			c0.089-0.17,0.043-0.253-0.035-0.319l-0.188-0.153l0.08-0.152l1.81,1.497l-0.488,0.92l-0.12-0.104
			c0.288-0.682,0.185-0.929-0.069-1.144l-0.321-0.264c-0.071-0.06-0.13-0.065-0.202,0.067l-0.404,0.76l0.058,0.044
			c0.317,0.265,0.365,0.282,0.706-0.24l0.115,0.095l-0.706,1.333l-0.116-0.095c0.254-0.598,0.233-0.629-0.098-0.904l-0.056-0.046
			l-0.437,0.822c-0.074,0.14-0.033,0.197,0.033,0.251l0.412,0.347c0.255,0.209,0.47,0.17,0.85-0.407l0.121,0.1l-0.496,0.936
			L17.442,57.139"/>
		<path fill="#32276B" d="M21.719,60.085c-0.263-0.144-0.426-0.427-0.275-0.745c0.251-0.544,0.253-0.783-0.023-0.986l-0.225-0.125
			l-0.415,0.881c-0.068,0.146-0.017,0.195,0.058,0.237l0.292,0.161l-0.077,0.164l-1.33-0.735l0.077-0.161l0.217,0.119
			c0.091,0.049,0.177,0.061,0.261-0.119l0.835-1.781c0.083-0.18,0.026-0.25-0.065-0.3l-0.217-0.12l0.073-0.159l1.512,0.834
			c0.393,0.219,0.565,0.67,0.392,1.038c-0.123,0.263-0.426,0.363-0.756,0.31c0.174,0.318,0.16,0.528-0.09,1.063
			c-0.073,0.156-0.038,0.223,0.023,0.256c0.063,0.036,0.129,0.016,0.179-0.09l0.239-0.51l0.209,0.113l-0.254,0.548
			C22.269,60.168,22.057,60.271,21.719,60.085 M22.016,57.242l-0.184-0.104c-0.078-0.042-0.113-0.025-0.156,0.061l-0.395,0.844
			l0.256,0.142c0.397,0.219,0.659,0.013,0.752-0.187C22.481,57.587,22.229,57.359,22.016,57.242z"/>
		<path fill="#32276B" d="M25.594,58.729c-0.122-0.047-0.199-0.01-0.306,0.139l-1.57,2.044l-0.253-0.095l0.046-2.62
			c-0.001-0.202-0.026-0.266-0.123-0.301l-0.184-0.069l0.056-0.173l1.327,0.501l-0.056,0.175l-0.199-0.078
			c-0.097-0.034-0.229-0.037-0.226,0.169l-0.066,1.747l1.031-1.385c0.092-0.129,0.057-0.229-0.078-0.28l-0.162-0.062l0.054-0.17
			l0.898,0.336l-0.058,0.174L25.594,58.729"/>
		<path fill="#32276B" d="M27.169,61.925l0.056-0.178l0.214,0.041c0.158,0.029,0.206-0.011,0.25-0.18l0.494-1.65l-1.434,1.86
			l-0.262-0.066l-0.058-2.231l-0.582,1.63c-0.062,0.195,0.011,0.248,0.112,0.276l0.216,0.056l-0.056,0.176l-1.062-0.272l0.057-0.176
			l0.235,0.058c0.1,0.028,0.19,0.019,0.252-0.181l0.669-1.909c0.06-0.191-0.014-0.248-0.113-0.274l-0.233-0.06l0.053-0.173
			l1.058,0.271l0.013,2.046l1.337-1.731l1.026,0.189l-0.054,0.171l-0.24-0.037c-0.103-0.027-0.193-0.011-0.254,0.182l-0.578,1.927
			c-0.061,0.195,0.007,0.248,0.113,0.274l0.233,0.05l-0.054,0.176L27.169,61.925"/>
		<path fill="#32276B" d="M61.47,61.983c-0.814,0.176-1.405-0.472-1.579-1.14c-0.195-0.752,0.141-1.605,0.864-1.763
			c0.319-0.068,0.509-0.009,0.757,0.126l0.031-0.299l0.124-0.025l0.311,1.205l-0.169,0.037c-0.205-0.593-0.542-0.913-0.974-0.821
			c-0.402,0.09-0.529,0.641-0.332,1.401c0.185,0.722,0.564,1.12,0.979,1.032c0.441-0.099,0.65-0.395,0.552-1.016l0.197-0.043
			C62.372,61.415,62.086,61.848,61.47,61.983"/>
		<path fill="#32276B" d="M63.704,61.315l-0.056-0.178l0.226-0.073c0.103-0.03,0.21-0.109,0.092-0.279l-0.275-0.39l-0.678,0.218
			v0.483c0.004,0.163,0.087,0.222,0.23,0.174l0.172-0.055l0.053,0.176l-0.978,0.317l-0.053-0.176l0.178-0.059
			c0.128-0.041,0.173-0.112,0.174-0.307l0.025-2.592l0.269-0.085l1.486,2.101c0.113,0.163,0.171,0.192,0.276,0.159l0.228-0.076
			l0.054,0.174L63.704,61.315 M63.019,59.43l-0.001,0.966l0.545-0.181L63.019,59.43z"/>
		<path fill="#32276B" d="M66.353,57.391c-0.121,0.055-0.162,0.14-0.163,0.33l-0.002,2.679l-0.254,0.11l-1.514-2.006
			c-0.117-0.155-0.169-0.183-0.268-0.14l-0.183,0.081l-0.053-0.173l1.324-0.586l0.051,0.173l-0.197,0.087
			c-0.097,0.046-0.202,0.139-0.083,0.295l0.974,1.315l-0.013-1.739c-0.002-0.169-0.083-0.221-0.219-0.16l-0.162,0.07l-0.054-0.173
			l0.896-0.395l0.052,0.172L66.353,57.391"/>
		<path fill="#32276B" d="M68.335,59.3c-0.346,0.21-0.562,0.164-0.75,0.037l-0.04,0.372l-0.104,0.062l-0.347-1.165l0.136-0.082
			c0.225,0.512,0.541,0.873,1.021,0.583c0.191-0.118,0.323-0.364,0.254-0.598c-0.239-0.8-1.342,0.472-1.708-0.75
			c-0.074-0.255-0.035-0.865,0.5-1.188c0.295-0.179,0.499-0.153,0.678-0.059l0.016-0.359l0.099-0.061l0.329,1.104l-0.143,0.086
			c-0.211-0.549-0.486-0.765-0.881-0.525c-0.285,0.173-0.312,0.468-0.262,0.639c0.196,0.659,1.372-0.462,1.691,0.61
			C68.959,58.451,68.809,59.013,68.335,59.3"/>
		<path fill="#32276B" d="M70.15,57.91l-0.058-0.17l0.183-0.148c0.081-0.068,0.166-0.185,0.053-0.327l-0.26-0.325l-0.548,0.451
			l0.038,0.509c0.013,0.172,0.089,0.207,0.205,0.11l0.138-0.11l0.06,0.167l-0.792,0.649l-0.059-0.171l0.144-0.117
			c0.103-0.083,0.135-0.177,0.12-0.379l-0.182-2.746l0.218-0.182l1.408,1.745c0.108,0.14,0.158,0.149,0.243,0.078l0.186-0.15
			l0.058,0.169L70.15,57.91 M69.43,56.139l0.074,1.021l0.445-0.365L69.43,56.139z"/>
		<path fill="#32276B" d="M72.089,56.093c-0.243,0.319-0.418,0.335-0.585,0.257l0.018,0.398l-0.073,0.099l-0.435-1.122l0.095-0.122
			c0.248,0.471,0.549,0.753,0.888,0.311c0.134-0.178,0.203-0.472,0.114-0.7c-0.297-0.767-0.99,0.885-1.446-0.284
			c-0.096-0.247-0.149-0.896,0.226-1.392c0.207-0.272,0.371-0.305,0.527-0.257l-0.039-0.381l0.07-0.094l0.412,1.058l-0.1,0.132
			c-0.244-0.509-0.49-0.653-0.766-0.293c-0.202,0.267-0.183,0.582-0.118,0.745c0.246,0.636,1.015-0.883,1.417,0.146
			C72.461,55.025,72.423,55.656,72.089,56.093"/>
		<path fill="#32276B" d="M73.954,53.218c-0.488-0.521-1.377-1.694-1.859-3.737c-0.105-0.654-0.59-1.267-1.706-1.267
			c-1.342,0-2.509,0.764-3.154,1.479c-0.528,0.581-0.797,1.224-0.742,1.753c0.016,0.149,0.068,0.277,0.152,0.384l-0.003,0.002
			l1.903,2.283c-2.965,2.357-6.611,3.464-9.968,3.958c5.447-5.352,9.06-12.694,9.06-23.198V15.402
			c-5.685-1.446-14.808-2.901-23.279-2.901c-8.47,0-17.594,1.455-23.279,2.901l-0.001,19.472c0,10.445,3.576,17.767,8.973,23.111
			c-3.332-0.457-6.947-1.515-9.904-3.871l1.9-2.283l-0.004-0.002c0.086-0.106,0.139-0.234,0.153-0.384
			c0.056-0.529-0.216-1.172-0.742-1.753c-0.644-0.715-1.812-1.479-3.151-1.479c-1.117,0-1.603,0.612-1.705,1.267
			c-0.483,2.043-1.375,3.217-1.861,3.737c-1.09,1.158-0.465,2.313,0.101,3.084c1.61,2.187,5.645,6.03,14.607,7.274
			c-0.245,0.764-0.541,1.445-0.839,2.094c-0.335,0.729-0.061,1.383,0.949,2.261c2.504,2.178,7.701,4.569,14.792,4.569
			c7.089,0,12.288-2.392,14.788-4.569c1.012-0.878,1.288-1.532,0.953-2.261c-0.299-0.648-0.597-1.33-0.842-2.094
			c8.964-1.244,13.124-4.929,14.704-7.341C74.47,55.438,75.042,54.376,73.954,53.218 M44.345,67.087
			c-3.784,0-6.759-0.973-8.679-1.809c0.394-0.699,0.686-1.432,0.906-2.198c2.457,1.534,5.084,2.846,7.785,3.994
			c2.709-1.152,5.342-2.464,7.803-4.004c0.243,0.764,0.558,1.49,0.952,2.19C51.193,66.097,48.125,67.087,44.345,67.087z"/>
		<path fill="#FFFFFF" d="M31.298,60.363c-0.604,0-0.784,0.192-0.784,0.539c0,1.496,2.902,3.401,4.667,4.183
			c0.411-0.721,0.733-1.474,0.979-2.266c-1.054-0.673-2.07-1.388-3.049-2.149C32.445,60.499,31.805,60.363,31.298,60.363"/>
		<path fill="#FFFFFF" d="M19.033,50.917c-0.219,0.354-0.668,1.071-0.803,1.288c0.331,0.442,0.97,1.112,1.582,1.635l1.406-1.69
			C20.512,52.145,19.604,51.698,19.033,50.917"/>
		<path fill="#FFFFFF" d="M19.04,50.094c0.57,0.989,1.486,1.697,2.346,1.524c0.299-0.063,0.315-0.24,0.321-0.302
			c0.043-0.409-0.127-0.845-0.574-1.339c-0.732-0.81-1.759-1.306-2.748-1.306c-1.002,0-1.297,0.567-1.297,1.113
			c0,0.358,0.198,1.105,0.867,2.049C18.213,51.422,19.04,50.094,19.04,50.094"/>
		<path fill="#FFFFFF" d="M16.741,50.529c-0.524,1.565-1.111,2.504-1.545,2.968c-0.68,0.723-0.713,1.495,0.061,2.546
			c1.573,2.14,5.476,5.824,14.329,7.042c0.192-0.687,0.327-1.357,0.393-2.204h0.001c0.006-0.671,0.509-0.957,1.202-0.957
			c0.33,0,0.742,0.063,1.191,0.154c-0.585-0.481-1.157-0.982-1.71-1.502C22.219,57.476,17.924,53.5,16.741,50.529"/>
		<path fill="#FFFFFF" d="M53.609,65.031c1.766-0.775,4.537-2.625,4.537-4.121c0-0.348-0.182-0.539-0.785-0.539
			c-0.492,0-1.107,0.128-1.746,0.29c-0.979,0.761-1.996,1.478-3.049,2.151C52.84,63.588,53.201,64.315,53.609,65.031"/>
		<path fill="#FFFFFF" d="M67.466,52.149l1.411,1.69c0.61-0.522,1.249-1.192,1.58-1.635c-0.135-0.217-0.581-0.934-0.803-1.288
			C69.084,51.698,68.176,52.145,67.466,52.149"/>
		<path fill="#FFFFFF" d="M66.92,51.404c0.005,0.057,0.023,0.237,0.32,0.3c0.859,0.175,1.838-0.621,2.407-1.61
			c0,0,0.827,1.328,1.084,1.74c0.67-0.943,0.862-1.748,0.862-2.106c0-0.548-0.258-1.042-1.256-1.042
			c-0.991,0-2.051,0.481-2.784,1.292C67.109,50.472,66.879,50.99,66.92,51.404"/>
		<path fill="#FFFFFF" d="M73.551,53.606c-0.434-0.465-1.08-1.512-1.605-3.077c-1.18,2.969-5.468,6.939-13.89,8.044
			c-0.553,0.521-1.121,1.017-1.706,1.498c0.435-0.087,0.833-0.147,1.156-0.147c0.695,0,1.195,0.286,1.202,0.957
			c0.067,0.847,0.217,1.597,0.41,2.281c8.854-1.215,12.886-4.931,14.3-7.023C74.149,55.055,74.233,54.328,73.551,53.606"/>
		<path fill="#FFFFFF" d="M58.398,61.904c-1.418,2.411-7.369,5.688-14.054,5.688c-6.687,0-12.638-3.276-14.055-5.688
			c-0.255,1.579-0.677,2.875-1.198,4.008c-0.16,0.355-0.245,0.812,0.841,1.762c2.444,2.125,7.44,4.333,14.412,4.333
			c6.97,0,11.968-2.193,14.409-4.319c1.088-0.948,1.005-1.404,0.842-1.76C59.075,64.796,58.654,63.483,58.398,61.904"/>
		<path fill="#0094D8" d="M44.357,65.56c-12.048-5.034-22.316-13.617-22.316-31.099V16.253c4.592-1.202,14.576-2.897,22.316-2.897
			c7.743,0,17.725,1.695,22.314,2.897v18.208C66.671,51.942,56.406,60.525,44.357,65.56"/>
		<path fill="#32276B" d="M30.929,67.275c-0.651-0.523-0.836-1.506-0.714-2.167c0.14-0.74,0.695-1.13,1.272-0.662
			c0.256,0.203,0.37,0.405,0.499,0.711l0.132-0.204l0.098,0.076l-0.279,1.142l-0.137-0.11c0.074-0.625,0.01-1.102-0.334-1.377
			c-0.323-0.262-0.619,0.062-0.759,0.815c-0.131,0.711-0.008,1.328,0.323,1.597c0.353,0.283,0.612,0.221,0.771-0.34l0.156,0.128
			C31.795,67.532,31.349,67.615,30.929,67.275"/>
		<path fill="#32276B" d="M33.277,68.714c-0.786-0.359-1.021-1.272-0.896-1.892c0.134-0.665,0.712-1.242,1.462-0.9
			c0.898,0.415,1.046,1.388,0.934,1.945C34.633,68.587,34.065,69.075,33.277,68.714 M33.832,66.15
			c-0.334-0.153-0.691,0.036-0.873,0.933c-0.188,0.947,0.116,1.305,0.395,1.436c0.411,0.189,0.697-0.171,0.832-0.843
			C34.355,66.832,34.18,66.31,33.832,66.15z"/>
		<path fill="#32276B" d="M37.657,69.096c-0.104-0.037-0.195-0.029-0.233,0.166l-0.217,0.971l-0.162-0.04l-0.118-0.377
			c-0.141,0.206-0.423,0.296-0.804,0.161c-0.725-0.258-1.077-1.024-0.914-1.805c0.156-0.746,0.801-1.288,1.547-1.022
			c0.337,0.119,0.525,0.316,0.643,0.529l0.174-0.24l0.124,0.033l-0.279,1.13l-0.157-0.043c0.058-0.535-0.04-1.011-0.499-1.173
			c-0.224-0.08-0.74-0.022-0.953,0.993c-0.164,0.784,0.085,1.264,0.462,1.397c0.301,0.105,0.434-0.018,0.523-0.193l0.101-0.429
			c0.041-0.194-0.031-0.259-0.136-0.297l-0.244-0.086l0.036-0.173l1.291,0.38l-0.035,0.17L37.657,69.096"/>
		<path fill="#32276B" d="M40.915,68.365c-0.11-0.018-0.195,0.004-0.211,0.205l-0.331,2.426l-0.308-0.052l-1.162-2.311l-0.263,1.61
			c-0.025,0.192,0.055,0.28,0.166,0.297l0.256,0.062l-0.029,0.182l-1.108-0.255l0.028-0.18l0.218,0.047
			c0.111,0.02,0.177-0.014,0.212-0.213l0.322-1.965c0.029-0.189-0.047-0.249-0.174-0.269l-0.216-0.05l0.028-0.17l0.852,0.17
			l1.073,2.138l0.168-1.515c0.016-0.199-0.065-0.252-0.174-0.27l-0.255-0.046l0.026-0.176l1.125,0.193l-0.026,0.178L40.915,68.365"
			/>
		<path fill="#32276B" d="M42.49,71.265c-0.866-0.064-1.231-0.885-1.18-1.552c0.054-0.71,0.586-1.501,1.413-1.438
			c0.996,0.074,1.273,0.989,1.228,1.587C43.892,70.631,43.361,71.333,42.49,71.265 M42.742,68.504
			c-0.37-0.026-0.72,0.296-0.793,1.255c-0.078,1.015,0.285,1.256,0.598,1.283c0.454,0.033,0.705-0.433,0.762-1.149
			C43.379,68.989,43.125,68.535,42.742,68.504z"/>
		<path fill="#32276B" d="M45.667,71.283c-0.418,0.018-0.625-0.13-0.773-0.339l-0.162,0.313l-0.125,0.007l0.014-1.223l0.164-0.009
			c0.069,0.574,0.279,1.058,0.858,1.032c0.23-0.008,0.443-0.164,0.445-0.413c0.007-0.842-1.513-0.239-1.502-1.521
			c0.004-0.27,0.235-0.801,0.883-0.827c0.354-0.016,0.555,0.107,0.707,0.285l0.129-0.317l0.121-0.007l-0.012,1.159l-0.172,0.004
			c-0.043-0.599-0.254-0.927-0.729-0.907c-0.348,0.014-0.468,0.266-0.47,0.445c-0.008,0.693,1.545,0.266,1.531,1.391
			C46.568,70.826,46.239,71.262,45.667,71.283"/>
		<path fill="#32276B" d="M48.62,70.992c-0.864,0.129-1.345-0.528-1.389-1.213c-0.048-0.771,0.432-1.657,1.183-1.749
			c0.334-0.044,0.536-0.003,0.754,0.144l0.092-0.3l0.125-0.022l0.081,1.236l-0.18,0.028c-0.087-0.607-0.363-0.946-0.811-0.867
			c-0.422,0.076-0.656,0.631-0.605,1.41c0.045,0.741,0.348,1.16,0.777,1.081c0.461-0.083,0.729-0.377,0.75-1.007l0.205-0.039
			C49.604,70.447,49.263,70.895,48.62,70.992"/>
		<path fill="#32276B" d="M51.135,67.729c-0.094,0.029-0.152,0.083-0.141,0.237l0.054,0.856l0.077-0.021
			c0.418-0.12,0.47-0.149,0.482-0.827l0.154-0.044l0.104,1.567l-0.155,0.044c-0.1-0.641-0.135-0.645-0.572-0.52l-0.075,0.023
			l0.064,0.979c0.01,0.163,0.078,0.163,0.164,0.14c0.181-0.045,0.291-0.076,0.549-0.158c0.414-0.119,0.5-0.318,0.52-1.086
			l0.162-0.044l0.113,1.093c-0.914,0.297-1.606,0.489-2.518,0.718l-0.012-0.183l0.247-0.063c0.104-0.03,0.185-0.094,0.174-0.3
			l-0.135-2.005c-0.011-0.202-0.097-0.213-0.202-0.183l-0.246,0.07l-0.011-0.182c0.888-0.237,1.734-0.479,2.349-0.669l0.112,1.065
			l-0.161,0.043c-0.117-0.733-0.338-0.783-0.679-0.686C51.385,67.645,51.232,67.702,51.135,67.729"/>
		<path fill="#32276B" d="M53.237,69.734l-0.025-0.178l0.253-0.096c0.099-0.043,0.156-0.12,0.128-0.319l-0.241-1.908
			c-0.025-0.192-0.11-0.192-0.205-0.149l-0.241,0.096l-0.023-0.173l1.635-0.747c0.426-0.193,0.795-0.035,0.849,0.369
			c0.036,0.283-0.12,0.673-0.444,0.867c0.303,0.068,0.402,0.221,0.477,0.809c0.023,0.168,0.109,0.181,0.177,0.144
			c0.065-0.036,0.11-0.106,0.097-0.222l-0.098-0.542l0.18-0.082l0.113,0.569c0.029,0.207-0.081,0.465-0.446,0.632
			c-0.283,0.127-0.559,0.079-0.605-0.269c-0.076-0.592-0.198-0.755-0.523-0.655l-0.245,0.113l0.123,0.98
			c0.022,0.161,0.083,0.166,0.163,0.129l0.322-0.133l0.024,0.177C54.228,69.36,53.712,69.564,53.237,69.734 M54.195,66.604
			l-0.198,0.093c-0.084,0.037-0.106,0.08-0.094,0.175l0.119,0.921l0.277-0.128c0.429-0.196,0.53-0.567,0.503-0.781
			C54.742,66.434,54.426,66.5,54.195,66.604z"/>
		<path fill="#32276B" d="M57.787,64.147l0.264,0.943l-0.133,0.101c-0.17-0.67-0.376-0.617-0.654-0.398
			c-0.146,0.113-0.233,0.186-0.356,0.286c-0.078,0.062-0.122,0.133-0.098,0.281l0.177,0.803l0.09-0.066
			c0.301-0.235,0.344-0.296,0.241-0.935l0.127-0.097l0.329,1.444l-0.125,0.097c-0.147-0.588-0.177-0.576-0.54-0.303l-0.087,0.068
			l0.185,0.925c0.024,0.156,0.08,0.126,0.154,0.079c0.117-0.072,0.384-0.286,0.501-0.379c0.28-0.215,0.338-0.465,0.234-1.194
			l0.132-0.101l0.265,1c-0.538,0.514-1.39,1.118-2.095,1.579l-0.027-0.174l0.214-0.14c0.112-0.087,0.145-0.153,0.11-0.36
			l-0.374-1.852c-0.03-0.189-0.113-0.213-0.201-0.146l-0.221,0.152l-0.045-0.163C56.389,65.228,57.189,64.621,57.787,64.147"/>
		<path fill="#32276B" d="M16.959,56.635c-0.187-0.236-0.286-0.587-0.141-0.881c0.24-0.497,0.25-0.762,0.061-1.062l-0.16-0.202
			l-0.426,0.767c-0.064,0.134-0.032,0.202,0.021,0.271l0.207,0.261l-0.072,0.15l-0.939-1.188l0.073-0.152l0.152,0.194
			c0.066,0.081,0.128,0.119,0.21-0.049l0.852-1.57c0.079-0.164,0.041-0.258-0.023-0.341l-0.153-0.192l0.071-0.146l1.054,1.332
			c0.276,0.352,0.367,0.886,0.202,1.225c-0.118,0.242-0.355,0.258-0.601,0.101c0.103,0.392,0.075,0.61-0.164,1.107
			c-0.07,0.146-0.049,0.224-0.005,0.28c0.043,0.056,0.095,0.057,0.142-0.04l0.228-0.473l0.149,0.187l-0.242,0.504
			C17.368,56.894,17.197,56.937,16.959,56.635 M17.442,53.696l-0.116-0.149c-0.055-0.067-0.085-0.061-0.124,0.018l-0.402,0.757
			l0.194,0.232c0.281,0.354,0.498,0.214,0.586,0.028C17.763,54.205,17.592,53.888,17.442,53.696z"/>
		<path fill="#32276B" d="M17.442,57.139l0.083-0.158l0.186,0.156c0.082,0.065,0.155,0.09,0.25-0.086l0.906-1.704
			c0.089-0.17,0.043-0.253-0.035-0.319l-0.188-0.153l0.08-0.152l1.81,1.497l-0.488,0.92l-0.12-0.104
			c0.288-0.682,0.185-0.929-0.069-1.144l-0.321-0.264c-0.071-0.06-0.13-0.065-0.202,0.067l-0.404,0.76l0.058,0.044
			c0.317,0.265,0.365,0.282,0.706-0.24l0.115,0.095l-0.706,1.333l-0.116-0.095c0.254-0.598,0.233-0.629-0.098-0.904l-0.056-0.046
			l-0.437,0.822c-0.074,0.14-0.033,0.197,0.033,0.251l0.412,0.347c0.255,0.209,0.47,0.17,0.85-0.407l0.121,0.1l-0.496,0.936
			L17.442,57.139"/>
		<path fill="#32276B" d="M21.719,60.085c-0.263-0.144-0.426-0.427-0.275-0.745c0.251-0.544,0.253-0.783-0.023-0.986l-0.225-0.125
			l-0.415,0.881c-0.068,0.146-0.017,0.195,0.058,0.237l0.292,0.161l-0.077,0.164l-1.33-0.735l0.077-0.161l0.217,0.119
			c0.091,0.049,0.177,0.061,0.261-0.119l0.835-1.781c0.083-0.18,0.026-0.25-0.065-0.3l-0.217-0.12l0.073-0.159l1.512,0.834
			c0.393,0.219,0.565,0.67,0.392,1.038c-0.123,0.263-0.426,0.363-0.756,0.31c0.174,0.318,0.16,0.528-0.09,1.063
			c-0.073,0.156-0.038,0.223,0.023,0.256c0.063,0.036,0.129,0.016,0.179-0.09l0.239-0.51l0.209,0.113l-0.254,0.548
			C22.269,60.168,22.057,60.271,21.719,60.085 M22.016,57.242l-0.184-0.104c-0.078-0.042-0.113-0.025-0.156,0.061l-0.395,0.844
			l0.256,0.142c0.397,0.219,0.659,0.013,0.752-0.187C22.481,57.587,22.229,57.359,22.016,57.242z"/>
		<path fill="#32276B" d="M25.594,58.729c-0.122-0.047-0.199-0.01-0.306,0.139l-1.57,2.044l-0.253-0.095l0.046-2.62
			c-0.001-0.202-0.026-0.266-0.123-0.301l-0.184-0.069l0.056-0.173l1.327,0.501l-0.056,0.175l-0.199-0.078
			c-0.097-0.034-0.229-0.037-0.226,0.169l-0.066,1.747l1.031-1.385c0.092-0.129,0.057-0.229-0.078-0.28l-0.162-0.062l0.054-0.17
			l0.898,0.336l-0.058,0.174L25.594,58.729"/>
		<path fill="#32276B" d="M27.169,61.925l0.056-0.178l0.214,0.041c0.158,0.029,0.206-0.011,0.25-0.18l0.494-1.65l-1.434,1.86
			l-0.262-0.066l-0.058-2.231l-0.582,1.63c-0.062,0.195,0.011,0.248,0.112,0.276l0.216,0.056l-0.056,0.176l-1.062-0.272l0.057-0.176
			l0.235,0.058c0.1,0.028,0.19,0.019,0.252-0.181l0.669-1.909c0.06-0.191-0.014-0.248-0.113-0.274l-0.233-0.06l0.053-0.173
			l1.058,0.271l0.013,2.046l1.337-1.731l1.026,0.189l-0.054,0.171l-0.24-0.037c-0.103-0.027-0.193-0.011-0.254,0.182l-0.578,1.927
			c-0.061,0.195,0.007,0.248,0.113,0.274l0.233,0.05l-0.054,0.176L27.169,61.925"/>
		<path fill="#32276B" d="M61.47,61.983c-0.814,0.176-1.405-0.472-1.579-1.14c-0.195-0.752,0.141-1.605,0.864-1.763
			c0.319-0.068,0.509-0.009,0.757,0.126l0.031-0.299l0.124-0.025l0.311,1.205l-0.169,0.037c-0.205-0.593-0.542-0.913-0.974-0.821
			c-0.402,0.09-0.529,0.641-0.332,1.401c0.185,0.722,0.564,1.12,0.979,1.032c0.441-0.099,0.65-0.395,0.552-1.016l0.197-0.043
			C62.372,61.415,62.086,61.848,61.47,61.983"/>
		<path fill="#32276B" d="M63.704,61.315l-0.056-0.178l0.226-0.073c0.103-0.03,0.21-0.109,0.092-0.279l-0.275-0.39l-0.678,0.218
			v0.483c0.004,0.163,0.087,0.222,0.23,0.174l0.172-0.055l0.053,0.176l-0.978,0.317l-0.053-0.176l0.178-0.059
			c0.128-0.041,0.173-0.112,0.174-0.307l0.025-2.592l0.269-0.085l1.486,2.101c0.113,0.163,0.171,0.192,0.276,0.159l0.228-0.076
			l0.054,0.174L63.704,61.315 M63.019,59.43l-0.001,0.966l0.545-0.181L63.019,59.43z"/>
		<path fill="#32276B" d="M66.353,57.391c-0.121,0.055-0.162,0.14-0.163,0.33l-0.002,2.679l-0.254,0.11l-1.514-2.006
			c-0.117-0.155-0.169-0.183-0.268-0.14l-0.183,0.081l-0.053-0.173l1.324-0.586l0.051,0.173l-0.197,0.087
			c-0.097,0.046-0.202,0.139-0.083,0.295l0.974,1.315l-0.013-1.739c-0.002-0.169-0.083-0.221-0.219-0.16l-0.162,0.07l-0.054-0.173
			l0.896-0.395l0.052,0.172L66.353,57.391"/>
		<path fill="#32276B" d="M68.335,59.3c-0.346,0.21-0.562,0.164-0.75,0.037l-0.04,0.372l-0.104,0.062l-0.347-1.165l0.136-0.082
			c0.225,0.512,0.541,0.873,1.021,0.583c0.191-0.118,0.323-0.364,0.254-0.598c-0.239-0.8-1.342,0.472-1.708-0.75
			c-0.074-0.255-0.035-0.865,0.5-1.188c0.295-0.179,0.499-0.153,0.678-0.059l0.016-0.359l0.099-0.061l0.329,1.104l-0.143,0.086
			c-0.211-0.549-0.486-0.765-0.881-0.525c-0.285,0.173-0.312,0.468-0.262,0.639c0.196,0.659,1.372-0.462,1.691,0.61
			C68.959,58.451,68.809,59.013,68.335,59.3"/>
		<path fill="#32276B" d="M70.15,57.91l-0.058-0.17l0.183-0.148c0.081-0.068,0.166-0.185,0.053-0.327l-0.26-0.325l-0.548,0.451
			l0.038,0.509c0.013,0.172,0.089,0.207,0.205,0.11l0.138-0.11l0.06,0.167l-0.792,0.649l-0.059-0.171l0.144-0.117
			c0.103-0.083,0.135-0.177,0.12-0.379l-0.182-2.746l0.218-0.182l1.408,1.745c0.108,0.14,0.158,0.149,0.243,0.078l0.186-0.15
			l0.058,0.169L70.15,57.91 M69.43,56.139l0.074,1.021l0.445-0.365L69.43,56.139z"/>
		<path fill="#32276B" d="M72.089,56.093c-0.243,0.319-0.418,0.335-0.585,0.257l0.018,0.398l-0.073,0.099l-0.435-1.122l0.095-0.122
			c0.248,0.471,0.549,0.753,0.888,0.311c0.134-0.178,0.203-0.472,0.114-0.7c-0.297-0.767-0.99,0.885-1.446-0.284
			c-0.096-0.247-0.149-0.896,0.226-1.392c0.207-0.272,0.371-0.305,0.527-0.257l-0.039-0.381l0.07-0.094l0.412,1.058l-0.1,0.132
			c-0.244-0.509-0.49-0.653-0.766-0.293c-0.202,0.267-0.183,0.582-0.118,0.745c0.246,0.636,1.015-0.883,1.417,0.146
			C72.461,55.025,72.423,55.656,72.089,56.093"/>
		<path fill="#32276B" d="M28.366,23.896l0.333-0.462l30.655,19.41c0.335,0.212,0.723,0.472,1.113,0.737l0.152-0.212
			c0.146-0.149,0.267-0.275,0.347-0.352c0.151,0.059,0.699,0.321,1.004,0.515c0.714,0.451,1.358,1.417,1.241,2.062
			c-0.596,0.347-1.791,0.147-2.504-0.304c-0.304-0.195-0.769-0.573-0.88-0.684c0.039-0.096,0.22-0.415,0.32-0.587l-27.354-17.32
			c-0.808,0.015-1.638,0.116-2.469-0.401c-0.318-0.198-1.406-0.894-2.035-1.323c0.136-0.075,0.564-0.329,0.901-0.557L28.366,23.896"
			/>
		<path fill="#FFFFFF" d="M28.494,23.737l0.865,0.55c-0.337,0.228-0.753,0.489-0.894,0.568c0.63,0.429,1.663,1.087,1.982,1.285
			c0.833,0.518,1.663,0.415,2.473,0.401l26.194,16.585c0.886,0.562,2.189,1.31,3.053,1.733l-0.026,0.034
			c-0.742-0.109-1.431-0.482-2.002-0.844c-0.106,0.172-0.187,0.325-0.231,0.422c0.111,0.112,0.578,0.491,0.884,0.684
			c0.71,0.452,1.864,0.624,2.459,0.278c0.119-0.645-0.485-1.587-1.197-2.035c-0.307-0.194-0.854-0.458-1.006-0.512
			c-0.076,0.069-0.329,0.354-0.445,0.508L33.245,26.072c-0.286-0.708-0.496-1.463-1.317-1.99c-0.314-0.205-1.353-0.857-2.012-1.245
			c-0.026,0.15-0.127,0.604-0.227,0.986l-0.865-0.548L28.494,23.737"/>
		<path fill="#32276B" d="M30.176,24.235c0.041-0.279,0.048-0.743,0.048-0.854c0-0.076,0.1-0.01,0.11,0.032
			c0.046,0.19,0.048,0.643,0.083,0.974L30.176,24.235"/>
		<path fill="#32276B" d="M30.957,24.73c-0.008-0.29-0.042-0.702-0.08-0.957c-0.014-0.097,0.105-0.01,0.125,0.032
			c0.116,0.276,0.179,0.903,0.201,1.081L30.957,24.73"/>
		<path fill="#32276B" d="M32.541,25.732c-0.047-0.283-0.119-0.645-0.174-0.786c-0.072-0.189,0.057-0.084,0.096-0.015
			c0.141,0.257,0.259,0.667,0.309,0.947L32.541,25.732"/>
		<path fill="#32276B" d="M31.761,25.238c-0.007-0.286-0.101-0.76-0.15-1c-0.018-0.096,0.113-0.006,0.132,0.037
			c0.121,0.271,0.252,0.945,0.271,1.125L31.761,25.238"/>
		<path fill="#32276B" d="M29.946,24.558c-0.265,0.14-0.715,0.319-0.825,0.362c-0.074,0.028,0.027,0.09,0.071,0.083
			c0.208-0.03,0.655-0.199,0.995-0.293L29.946,24.558"/>
		<path fill="#32276B" d="M30.726,25.051c-0.291,0.104-0.711,0.228-0.976,0.289c-0.101,0.024,0.027,0.098,0.078,0.098
			c0.317-0.003,0.958-0.183,1.144-0.23L30.726,25.051"/>
		<path fill="#32276B" d="M32.312,26.057c-0.299,0.063-0.684,0.135-0.844,0.141c-0.213,0.008-0.063,0.084,0.021,0.09
			c0.302,0.026,0.756-0.024,1.049-0.087L32.312,26.057"/>
		<path fill="#32276B" d="M31.531,25.561c-0.289,0.103-0.79,0.198-1.047,0.244c-0.1,0.02,0.037,0.101,0.087,0.104
			c0.315,0.001,1.029-0.139,1.213-0.187L31.531,25.561"/>
		<path fill="#32276B" d="M26.609,26.611l0.333-0.463l30.655,19.407c0.335,0.215,0.722,0.472,1.115,0.737l0.152-0.21
			c0.144-0.147,0.264-0.275,0.344-0.347c0.151,0.054,0.701,0.316,1.005,0.512c0.713,0.451,1.359,1.415,1.242,2.062
			c-0.597,0.346-1.792,0.146-2.504-0.307c-0.304-0.192-0.771-0.572-0.882-0.682c0.041-0.095,0.222-0.413,0.323-0.588L31.037,29.412
			c-0.81,0.019-1.638,0.118-2.468-0.399c-0.319-0.196-1.407-0.894-2.039-1.321c0.138-0.079,0.564-0.329,0.903-0.561L26.609,26.611"
			/>
		<path fill="#FFFFFF" d="M26.735,26.449l0.869,0.549c-0.339,0.231-0.755,0.488-0.896,0.57c0.631,0.426,1.663,1.087,1.982,1.286
			c0.832,0.517,1.664,0.414,2.471,0.397l26.195,16.586c0.888,0.561,2.19,1.312,3.052,1.735l-0.025,0.034
			c-0.741-0.109-1.43-0.481-2.002-0.844c-0.107,0.173-0.188,0.325-0.23,0.422c0.112,0.112,0.578,0.49,0.882,0.686
			c0.713,0.45,1.868,0.621,2.461,0.277c0.116-0.646-0.487-1.585-1.199-2.036c-0.303-0.193-0.851-0.458-1.004-0.515
			c-0.078,0.072-0.33,0.358-0.447,0.511L31.487,28.786c-0.284-0.709-0.495-1.466-1.315-1.995c-0.315-0.201-1.355-0.854-2.013-1.241
			c-0.025,0.15-0.125,0.604-0.226,0.985l-0.865-0.548L26.735,26.449"/>
		<path fill="#32276B" d="M28.418,26.948c0.042-0.279,0.049-0.743,0.049-0.852c0-0.075,0.102-0.012,0.11,0.028
			c0.046,0.192,0.049,0.645,0.081,0.975L28.418,26.948"/>
		<path fill="#32276B" d="M29.201,27.441c-0.01-0.287-0.043-0.7-0.082-0.956c-0.014-0.095,0.107-0.01,0.124,0.033
			c0.118,0.277,0.183,0.901,0.202,1.079L29.201,27.441"/>
		<path fill="#32276B" d="M30.787,28.448c-0.051-0.286-0.124-0.647-0.178-0.789c-0.072-0.188,0.059-0.083,0.096-0.015
			c0.14,0.256,0.261,0.668,0.31,0.947L30.787,28.448"/>
		<path fill="#32276B" d="M30.001,27.953c-0.005-0.288-0.098-0.761-0.148-1.003c-0.018-0.095,0.114-0.005,0.135,0.038
			c0.119,0.272,0.25,0.945,0.271,1.125L30.001,27.953"/>
		<path fill="#32276B" d="M28.188,27.271c-0.261,0.139-0.714,0.32-0.824,0.361c-0.073,0.029,0.026,0.092,0.07,0.085
			c0.208-0.035,0.656-0.201,0.994-0.295L28.188,27.271"/>
		<path fill="#32276B" d="M28.969,27.765c-0.287,0.103-0.711,0.226-0.977,0.289c-0.1,0.023,0.031,0.097,0.078,0.097
			c0.321-0.002,0.959-0.18,1.145-0.229L28.969,27.765"/>
		<path fill="#32276B" d="M30.554,28.77c-0.299,0.063-0.683,0.135-0.843,0.141c-0.213,0.007-0.063,0.082,0.021,0.089
			c0.302,0.026,0.756-0.025,1.048-0.086L30.554,28.77"/>
		<path fill="#32276B" d="M29.772,28.273c-0.29,0.102-0.79,0.197-1.044,0.245c-0.102,0.019,0.035,0.1,0.086,0.1
			c0.312,0.006,1.025-0.134,1.211-0.186L29.772,28.273"/>
		<path fill="#32276B" d="M24.85,29.348l0.332-0.464l30.655,19.409c0.334,0.214,0.721,0.47,1.112,0.74l0.155-0.215
			c0.146-0.146,0.262-0.274,0.346-0.346c0.151,0.051,0.697,0.316,1.004,0.508c0.71,0.451,1.357,1.419,1.241,2.065
			c-0.596,0.343-1.792,0.146-2.503-0.308c-0.304-0.195-0.772-0.569-0.882-0.682c0.042-0.096,0.221-0.415,0.322-0.587L29.275,32.148
			c-0.806,0.018-1.637,0.118-2.467-0.399c-0.32-0.196-1.408-0.894-2.039-1.319c0.141-0.082,0.565-0.332,0.903-0.562L24.85,29.348"/>
		<path fill="#FFFFFF" d="M24.975,29.185l0.867,0.55c-0.338,0.231-0.753,0.49-0.894,0.569c0.63,0.427,1.664,1.089,1.981,1.286
			c0.832,0.519,1.662,0.417,2.473,0.398l26.195,16.588c0.884,0.559,2.188,1.309,3.052,1.732l-0.027,0.035
			c-0.741-0.108-1.431-0.48-2.002-0.845c-0.107,0.176-0.187,0.326-0.231,0.423c0.112,0.111,0.577,0.49,0.881,0.684
			c0.714,0.45,1.866,0.626,2.462,0.279c0.118-0.648-0.488-1.586-1.197-2.037c-0.308-0.194-0.855-0.458-1.007-0.512
			c-0.076,0.071-0.327,0.355-0.445,0.509L29.728,31.522c-0.284-0.709-0.497-1.466-1.317-1.995c-0.315-0.202-1.353-0.854-2.012-1.241
			c-0.025,0.151-0.125,0.604-0.226,0.985l-0.864-0.548L24.975,29.185"/>
		<path fill="#32276B" d="M26.66,29.684c0.041-0.279,0.048-0.74,0.048-0.854c0-0.072,0.1-0.01,0.109,0.03
			c0.046,0.193,0.047,0.646,0.082,0.976L26.66,29.684"/>
		<path fill="#32276B" d="M27.439,30.179c-0.005-0.288-0.042-0.701-0.079-0.959c-0.015-0.095,0.105-0.008,0.123,0.035
			c0.117,0.278,0.181,0.9,0.201,1.079L27.439,30.179"/>
		<path fill="#32276B" d="M29.024,31.182c-0.048-0.282-0.12-0.645-0.175-0.785c-0.073-0.189,0.058-0.086,0.096-0.015
			c0.139,0.255,0.262,0.667,0.309,0.945L29.024,31.182"/>
		<path fill="#32276B" d="M28.243,30.688c-0.008-0.287-0.103-0.761-0.149-1.003c-0.021-0.093,0.111-0.002,0.133,0.04
			c0.119,0.271,0.251,0.945,0.271,1.125L28.243,30.688"/>
		<path fill="#32276B" d="M26.428,30.006c-0.262,0.142-0.715,0.321-0.824,0.362c-0.074,0.029,0.025,0.092,0.07,0.086
			c0.207-0.034,0.655-0.2,0.993-0.295L26.428,30.006"/>
		<path fill="#32276B" d="M27.209,30.501c-0.288,0.102-0.711,0.226-0.977,0.288c-0.099,0.024,0.029,0.097,0.078,0.097
			c0.321-0.003,0.959-0.18,1.143-0.229L27.209,30.501"/>
		<path fill="#32276B" d="M28.794,31.504c-0.297,0.064-0.681,0.136-0.843,0.142c-0.213,0.007-0.063,0.083,0.021,0.091
			c0.302,0.022,0.755-0.024,1.048-0.087L28.794,31.504"/>
		<path fill="#32276B" d="M28.013,31.011c-0.288,0.102-0.79,0.194-1.046,0.244c-0.1,0.017,0.037,0.102,0.087,0.102
			c0.313,0.003,1.027-0.136,1.211-0.187L28.013,31.011"/>
		<path fill="#32276B" d="M23.053,32.055l0.333-0.461l30.656,19.41c0.334,0.212,0.721,0.468,1.111,0.736l0.153-0.21
			c0.146-0.151,0.267-0.277,0.348-0.351c0.152,0.056,0.698,0.317,1.005,0.514c0.712,0.451,1.356,1.415,1.24,2.062
			c-0.595,0.344-1.792,0.145-2.503-0.306c-0.305-0.192-0.771-0.572-0.882-0.684c0.04-0.093,0.221-0.414,0.321-0.584L27.479,34.857
			c-0.807,0.019-1.637,0.118-2.467-0.398c-0.319-0.196-1.408-0.895-2.037-1.322c0.139-0.077,0.564-0.331,0.9-0.561L23.053,32.055"/>
		<path fill="#FFFFFF" d="M23.181,31.896l0.866,0.548c-0.339,0.231-0.754,0.49-0.895,0.57c0.632,0.429,1.665,1.09,1.982,1.286
			c0.832,0.517,1.663,0.415,2.472,0.397l26.195,16.588c0.887,0.562,2.19,1.31,3.053,1.733l-0.026,0.036
			c-0.741-0.108-1.43-0.483-2.003-0.844c-0.108,0.171-0.186,0.323-0.228,0.42c0.113,0.115,0.577,0.491,0.883,0.686
			c0.711,0.449,1.863,0.623,2.459,0.277c0.118-0.646-0.486-1.585-1.198-2.037c-0.305-0.192-0.853-0.454-1.005-0.511
			c-0.077,0.07-0.33,0.355-0.446,0.509L27.932,34.231c-0.284-0.707-0.498-1.467-1.316-1.992c-0.315-0.204-1.355-0.855-2.013-1.244
			c-0.026,0.152-0.124,0.604-0.226,0.986l-0.866-0.549L23.181,31.896"/>
		<path fill="#32276B" d="M24.861,32.396c0.041-0.281,0.051-0.743,0.051-0.854c0-0.075,0.1-0.012,0.109,0.031
			c0.047,0.192,0.047,0.644,0.08,0.974L24.861,32.396"/>
		<path fill="#32276B" d="M25.644,32.889c-0.006-0.289-0.044-0.701-0.08-0.958c-0.015-0.093,0.106-0.01,0.125,0.033
			c0.116,0.276,0.18,0.9,0.201,1.079L25.644,32.889"/>
		<path fill="#32276B" d="M27.229,33.895c-0.05-0.285-0.123-0.645-0.177-0.788c-0.072-0.188,0.059-0.085,0.096-0.014
			c0.141,0.254,0.262,0.667,0.311,0.947L27.229,33.895"/>
		<path fill="#32276B" d="M26.448,33.399c-0.007-0.292-0.103-0.762-0.149-1.001c-0.021-0.098,0.111-0.008,0.131,0.035
			c0.121,0.271,0.252,0.945,0.272,1.125L26.448,33.399"/>
		<path fill="#32276B" d="M24.631,32.716c-0.259,0.139-0.714,0.321-0.825,0.364c-0.073,0.026,0.028,0.09,0.073,0.082
			c0.207-0.031,0.655-0.199,0.994-0.292L24.631,32.716"/>
		<path fill="#32276B" d="M25.414,33.211c-0.289,0.102-0.71,0.225-0.977,0.29c-0.099,0.023,0.028,0.095,0.078,0.095
			c0.319-0.001,0.958-0.183,1.142-0.229L25.414,33.211"/>
		<path fill="#32276B" d="M26.999,34.215c-0.298,0.063-0.683,0.134-0.845,0.141c-0.211,0.007-0.061,0.082,0.021,0.092
			c0.306,0.024,0.756-0.025,1.052-0.089L26.999,34.215"/>
		<path fill="#32276B" d="M26.215,33.719c-0.286,0.104-0.788,0.198-1.045,0.248c-0.098,0.017,0.039,0.101,0.087,0.101
			c0.314,0.002,1.03-0.138,1.215-0.185L26.215,33.719"/>
		<path fill="#32276B" d="M60.348,23.896l-0.333-0.462l-30.653,19.41c-0.337,0.212-0.723,0.472-1.114,0.737l-0.153-0.212
			c-0.145-0.149-0.264-0.275-0.344-0.352c-0.153,0.059-0.701,0.321-1.007,0.515c-0.712,0.451-1.357,1.417-1.238,2.062
			c0.593,0.347,1.79,0.147,2.5-0.304c0.306-0.195,0.771-0.573,0.881-0.684c-0.041-0.096-0.221-0.415-0.322-0.587l27.356-17.32
			c0.808,0.015,1.638,0.116,2.467-0.401c0.319-0.198,1.407-0.894,2.04-1.323c-0.141-0.075-0.566-0.329-0.904-0.557L60.348,23.896"/>
		<path fill="#FFFFFF" d="M59.89,23.274l-0.865,0.549c-0.1-0.382-0.202-0.836-0.225-0.986c-0.66,0.388-1.7,1.04-2.013,1.245
			c-0.821,0.527-1.033,1.284-1.315,1.99L28.113,43.396c-0.117-0.152-0.372-0.438-0.447-0.509c-0.151,0.054-0.702,0.317-1.002,0.512
			c-0.712,0.448-1.316,1.391-1.2,2.038c0.595,0.343,1.748,0.171,2.461-0.281c0.305-0.192,0.77-0.571,0.882-0.684
			c-0.043-0.097-0.123-0.25-0.229-0.422c-0.572,0.361-1.261,0.736-2.005,0.844l-0.024-0.034c0.863-0.424,2.167-1.172,3.052-1.733
			l26.195-16.585c0.809,0.014,1.64,0.116,2.473-0.401c0.317-0.198,1.352-0.856,1.98-1.285c-0.14-0.079-0.554-0.341-0.893-0.568
			l0.866-0.55L59.89,23.274"/>
		<path fill="#32276B" d="M58.539,24.235c-0.041-0.279-0.048-0.743-0.048-0.854c0-0.076-0.102-0.01-0.112,0.032
			c-0.047,0.19-0.047,0.643-0.08,0.974L58.539,24.235"/>
		<path fill="#32276B" d="M57.757,24.73c0.008-0.29,0.042-0.702,0.081-0.957c0.012-0.097-0.106-0.01-0.125,0.032
			c-0.117,0.276-0.18,0.903-0.201,1.081L57.757,24.73"/>
		<path fill="#32276B" d="M56.171,25.732c0.05-0.283,0.122-0.645,0.177-0.786c0.071-0.189-0.059-0.084-0.096-0.015
			c-0.139,0.257-0.259,0.667-0.309,0.947L56.171,25.732"/>
		<path fill="#32276B" d="M56.955,25.238c0.005-0.286,0.1-0.76,0.149-1c0.02-0.096-0.113-0.006-0.133,0.037
			c-0.121,0.271-0.25,0.945-0.272,1.125L56.955,25.238"/>
		<path fill="#32276B" d="M58.77,24.558c0.262,0.14,0.715,0.319,0.825,0.362c0.073,0.028-0.028,0.09-0.073,0.083
			c-0.207-0.03-0.653-0.199-0.992-0.293L58.77,24.558"/>
		<path fill="#32276B" d="M57.989,25.051c0.289,0.104,0.708,0.228,0.974,0.289c0.101,0.024-0.027,0.098-0.077,0.098
			c-0.317-0.003-0.958-0.183-1.143-0.23L57.989,25.051"/>
		<path fill="#32276B" d="M56.402,26.057c0.3,0.063,0.685,0.135,0.845,0.141c0.211,0.008,0.062,0.084-0.023,0.09
			c-0.305,0.026-0.756-0.024-1.051-0.087L56.402,26.057"/>
		<path fill="#32276B" d="M57.183,25.561c0.291,0.103,0.792,0.198,1.045,0.244c0.101,0.02-0.035,0.101-0.084,0.104
			c-0.315,0.001-1.029-0.139-1.213-0.187L57.183,25.561"/>
		<path fill="#32276B" d="M62.104,26.611l-0.333-0.463L31.118,45.556c-0.337,0.215-0.724,0.472-1.112,0.737l-0.154-0.21
			c-0.146-0.147-0.264-0.275-0.347-0.347c-0.151,0.054-0.7,0.316-1.004,0.512c-0.711,0.451-1.357,1.415-1.239,2.062
			c0.594,0.346,1.79,0.146,2.502-0.307c0.305-0.192,0.771-0.572,0.882-0.682c-0.04-0.095-0.22-0.413-0.323-0.588l27.356-17.322
			c0.807,0.019,1.636,0.118,2.466-0.399c0.32-0.196,1.41-0.894,2.039-1.321c-0.139-0.079-0.563-0.329-0.902-0.561L62.104,26.611"/>
		<path fill="#FFFFFF" d="M61.646,25.988l-0.865,0.548c-0.102-0.382-0.2-0.836-0.226-0.985c-0.659,0.387-1.701,1.039-2.015,1.243
			c-0.816,0.526-1.029,1.285-1.315,1.993L29.869,46.109c-0.118-0.153-0.37-0.438-0.445-0.509c-0.153,0.055-0.7,0.318-1.006,0.512
			c-0.711,0.451-1.315,1.391-1.197,2.039c0.594,0.343,1.749,0.17,2.46-0.28c0.306-0.195,0.771-0.573,0.882-0.686
			c-0.042-0.097-0.122-0.247-0.229-0.422c-0.572,0.362-1.261,0.736-2.003,0.847l-0.024-0.036c0.862-0.425,2.165-1.173,3.052-1.736
			l26.194-16.586c0.809,0.017,1.64,0.119,2.472-0.397c0.318-0.199,1.354-0.86,1.983-1.286c-0.141-0.08-0.555-0.339-0.895-0.57
			l0.865-0.548L61.646,25.988"/>
		<path fill="#32276B" d="M60.295,26.948c-0.041-0.279-0.048-0.743-0.048-0.852c0-0.075-0.102-0.012-0.109,0.028
			c-0.047,0.192-0.049,0.645-0.082,0.975L60.295,26.948"/>
		<path fill="#32276B" d="M59.514,27.441c0.007-0.287,0.043-0.7,0.081-0.956c0.013-0.095-0.106-0.01-0.124,0.033
			c-0.117,0.277-0.181,0.901-0.201,1.079L59.514,27.441"/>
		<path fill="#32276B" d="M57.929,28.448c0.047-0.286,0.122-0.647,0.175-0.789c0.072-0.188-0.057-0.083-0.096-0.015
			c-0.139,0.256-0.258,0.668-0.307,0.947L57.929,28.448"/>
		<path fill="#32276B" d="M58.711,27.953c0.005-0.288,0.101-0.761,0.149-1.003c0.02-0.095-0.113-0.005-0.133,0.038
			c-0.121,0.272-0.25,0.945-0.271,1.125L58.711,27.953"/>
		<path fill="#32276B" d="M60.525,27.271c0.263,0.139,0.717,0.32,0.826,0.361c0.072,0.029-0.027,0.092-0.072,0.085
			c-0.208-0.035-0.655-0.201-0.994-0.295L60.525,27.271"/>
		<path fill="#32276B" d="M59.746,27.765c0.287,0.103,0.709,0.226,0.975,0.289c0.1,0.023-0.028,0.097-0.078,0.097
			c-0.319-0.002-0.958-0.18-1.143-0.229L59.746,27.765"/>
		<path fill="#32276B" d="M58.159,28.77c0.3,0.063,0.684,0.135,0.844,0.141c0.212,0.007,0.061,0.082-0.022,0.089
			c-0.304,0.026-0.756-0.025-1.049-0.086L58.159,28.77"/>
		<path fill="#32276B" d="M58.941,28.273c0.288,0.102,0.789,0.197,1.045,0.245c0.099,0.019-0.038,0.1-0.086,0.1
			c-0.315,0.006-1.028-0.134-1.212-0.186L58.941,28.273"/>
		<path fill="#32276B" d="M63.865,29.348l-0.334-0.464L32.878,48.293c-0.337,0.214-0.724,0.47-1.113,0.74l-0.154-0.215
			c-0.146-0.146-0.264-0.274-0.344-0.346c-0.154,0.051-0.701,0.316-1.008,0.508c-0.713,0.451-1.355,1.419-1.238,2.065
			c0.594,0.343,1.791,0.146,2.501-0.308c0.306-0.195,0.772-0.569,0.883-0.682c-0.04-0.096-0.221-0.415-0.322-0.587l27.356-17.321
			c0.807,0.018,1.636,0.118,2.467-0.399c0.317-0.196,1.408-0.894,2.037-1.319c-0.14-0.082-0.563-0.332-0.903-0.562L63.865,29.348"/>
		<path fill="#FFFFFF" d="M63.406,28.724l-0.863,0.548c-0.102-0.381-0.204-0.833-0.227-0.983c-0.66,0.386-1.699,1.037-2.013,1.239
			c-0.819,0.529-1.032,1.288-1.317,1.995L31.629,48.845c-0.115-0.151-0.368-0.438-0.445-0.509c-0.153,0.058-0.701,0.32-1.006,0.512
			c-0.711,0.451-1.314,1.392-1.198,2.037c0.595,0.347,1.748,0.171,2.461-0.279c0.305-0.193,0.771-0.572,0.884-0.684
			c-0.043-0.097-0.125-0.247-0.232-0.423c-0.571,0.364-1.26,0.736-2.004,0.845l-0.025-0.035c0.862-0.424,2.167-1.174,3.053-1.732
			l26.194-16.588c0.81,0.019,1.639,0.12,2.473-0.398c0.318-0.197,1.352-0.859,1.98-1.286c-0.14-0.079-0.554-0.338-0.892-0.569
			l0.865-0.55L63.406,28.724"/>
		<path fill="#32276B" d="M62.057,29.684c-0.042-0.279-0.049-0.74-0.049-0.854c0-0.072-0.101-0.01-0.112,0.03
			c-0.044,0.193-0.047,0.646-0.08,0.976L62.057,29.684"/>
		<path fill="#32276B" d="M61.273,30.179c0.008-0.288,0.044-0.701,0.082-0.959c0.012-0.095-0.107-0.008-0.125,0.035
			c-0.117,0.278-0.182,0.9-0.201,1.079L61.273,30.179"/>
		<path fill="#32276B" d="M59.689,31.182c0.05-0.282,0.122-0.645,0.175-0.785c0.074-0.189-0.057-0.086-0.094-0.015
			c-0.14,0.255-0.26,0.667-0.31,0.945L59.689,31.182"/>
		<path fill="#32276B" d="M60.471,30.688c0.005-0.287,0.102-0.761,0.148-1.003c0.02-0.093-0.112-0.002-0.13,0.04
			c-0.121,0.271-0.25,0.945-0.272,1.125L60.471,30.688"/>
		<path fill="#32276B" d="M62.285,30.006c0.262,0.142,0.715,0.321,0.825,0.362c0.075,0.029-0.026,0.092-0.071,0.086
			c-0.208-0.034-0.653-0.2-0.993-0.295L62.285,30.006"/>
		<path fill="#32276B" d="M61.506,30.501c0.289,0.102,0.71,0.226,0.974,0.288c0.102,0.024-0.028,0.097-0.078,0.097
			c-0.319-0.003-0.958-0.18-1.144-0.229L61.506,30.501"/>
		<path fill="#32276B" d="M59.922,31.504c0.295,0.064,0.682,0.136,0.841,0.142c0.213,0.007,0.061,0.083-0.021,0.091
			c-0.306,0.022-0.756-0.024-1.051-0.087L59.922,31.504"/>
		<path fill="#32276B" d="M60.699,31.011c0.291,0.102,0.792,0.194,1.047,0.244c0.102,0.017-0.037,0.102-0.086,0.102
			c-0.314,0.003-1.029-0.136-1.212-0.187L60.699,31.011"/>
		<path fill="#32276B" d="M65.662,32.055l-0.334-0.461l-30.654,19.41c-0.335,0.212-0.722,0.468-1.114,0.736l-0.153-0.21
			c-0.144-0.151-0.264-0.277-0.345-0.351c-0.151,0.056-0.698,0.317-1.005,0.514c-0.713,0.451-1.357,1.415-1.238,2.062
			c0.595,0.344,1.789,0.145,2.5-0.306c0.307-0.192,0.771-0.572,0.883-0.684c-0.041-0.093-0.22-0.414-0.323-0.584l27.355-17.324
			c0.806,0.019,1.639,0.118,2.467-0.398c0.319-0.196,1.408-0.895,2.038-1.322c-0.139-0.077-0.563-0.331-0.903-0.561L65.662,32.055"
			/>
		<path fill="#FFFFFF" d="M65.203,31.433l-0.864,0.549c-0.101-0.382-0.202-0.834-0.227-0.985c-0.658,0.388-1.698,1.041-2.012,1.243
			c-0.82,0.525-1.033,1.286-1.316,1.992L33.426,51.555c-0.119-0.153-0.369-0.438-0.448-0.509c-0.15,0.057-0.699,0.32-1.003,0.511
			c-0.712,0.452-1.316,1.392-1.199,2.037c0.596,0.346,1.749,0.172,2.463-0.277c0.304-0.194,0.769-0.57,0.882-0.686
			c-0.045-0.097-0.124-0.249-0.23-0.42c-0.573,0.36-1.263,0.735-2.006,0.844l-0.025-0.036c0.865-0.424,2.17-1.172,3.052-1.733
			l26.196-16.588c0.809,0.018,1.64,0.119,2.472-0.397c0.319-0.196,1.353-0.857,1.982-1.286c-0.139-0.08-0.555-0.339-0.893-0.57
			l0.866-0.548L65.203,31.433"/>
		<path fill="#32276B" d="M63.85,32.396c-0.041-0.281-0.047-0.743-0.047-0.854c0-0.075-0.102-0.012-0.109,0.031
			c-0.047,0.192-0.049,0.644-0.083,0.974L63.85,32.396"/>
		<path fill="#32276B" d="M63.071,32.889c0.008-0.289,0.042-0.701,0.08-0.958c0.014-0.093-0.105-0.01-0.123,0.033
			c-0.118,0.276-0.182,0.9-0.2,1.079L63.071,32.889"/>
		<path fill="#32276B" d="M61.485,33.895c0.05-0.285,0.121-0.645,0.177-0.788c0.07-0.188-0.062-0.085-0.098-0.014
			c-0.139,0.254-0.26,0.667-0.309,0.947L61.485,33.895"/>
		<path fill="#32276B" d="M62.266,33.399c0.007-0.292,0.101-0.762,0.149-1.001c0.02-0.098-0.112-0.008-0.131,0.035
			c-0.12,0.271-0.251,0.945-0.272,1.125L62.266,33.399"/>
		<path fill="#32276B" d="M64.081,32.716c0.264,0.139,0.715,0.321,0.825,0.364c0.075,0.026-0.027,0.09-0.07,0.082
			c-0.207-0.031-0.654-0.199-0.992-0.292L64.081,32.716"/>
		<path fill="#32276B" d="M63.301,33.211c0.29,0.102,0.708,0.225,0.977,0.29c0.1,0.023-0.028,0.095-0.079,0.095
			c-0.318-0.001-0.958-0.183-1.142-0.229L63.301,33.211"/>
		<path fill="#32276B" d="M61.716,34.215c0.298,0.063,0.682,0.134,0.843,0.141c0.213,0.007,0.062,0.082-0.022,0.092
			c-0.302,0.024-0.757-0.025-1.049-0.089L61.716,34.215"/>
		<path fill="#32276B" d="M62.498,33.719c0.289,0.104,0.789,0.198,1.045,0.248c0.101,0.017-0.036,0.101-0.088,0.101
			c-0.312,0.002-1.025-0.138-1.21-0.185L62.498,33.719"/>
		<path fill="#008C3E" d="M45.188,49.825c-0.01-0.228-0.01-0.9-0.022-1c-0.012-0.104-0.069-0.116-0.125-0.082
			c-0.057,0.035-0.149,0.111-0.252,0.191c0-0.125,0.018-0.384,0.018-0.475c0-0.143-0.019-0.155-0.121-0.07
			c-0.05,0.043-0.089,0.005-0.11-0.047c-0.034-0.095-0.208-0.546-0.24-0.649c-0.034-0.101-0.083-0.081-0.138,0.023
			c-0.054,0.116-0.187,0.469-0.221,0.571c-0.041,0.126-0.064,0.126-0.145,0.06c-0.119-0.094-0.146-0.05-0.138,0.025
			c0.02,0.149,0.108,0.495,0.129,0.688c-0.057-0.1-0.187-0.22-0.25-0.298c-0.072-0.079-0.123-0.041-0.125,0.071
			c-0.004,0.127-0.024,0.557-0.024,0.854l0.936,0.651L45.188,49.825"/>
		<path fill="#008C3E" d="M38.003,54.513c-0.281-0.09-0.612-0.212-0.72-0.245c-0.105-0.033-0.123-0.107-0.023-0.152
			c0.093-0.04,0.246-0.101,0.358-0.146c-0.191-0.039-0.522-0.091-0.667-0.124c-0.145-0.035-0.124-0.102-0.035-0.151
			c0.053-0.027,0.056-0.04-0.014-0.091c-0.085-0.066-0.354-0.318-0.445-0.405c-0.086-0.083-0.087-0.139,0.02-0.139
			c0.109-0.001,0.539-0.013,0.655-0.018c0.101-0.006,0.111-0.012,0.059-0.09c-0.072-0.109-0.059-0.159,0.017-0.133
			c0.086,0.025,0.452,0.145,0.569,0.184c-0.042-0.123-0.069-0.227-0.084-0.291c-0.013-0.063,0.015-0.116,0.116-0.095
			c0.1,0.021,0.738,0.228,0.958,0.292l0.258,0.998L38.003,54.513"/>
		<path fill="#008C3E" d="M39.727,60.397c-0.122,0.191-0.414,0.591-0.466,0.68c-0.05,0.09-0.014,0.133,0.054,0.139
			c0.067,0.005,0.177-0.009,0.319-0.028c-0.073,0.102-0.504,0.523-0.56,0.598c-0.053,0.075,0.177,0.032,0.249,0.014
			c0.055-0.012,0.047,0,0.032,0.103c-0.018,0.099-0.164,0.51-0.195,0.61c-0.032,0.104,0.037,0.146,0.143,0.093
			c0.112-0.061,0.471-0.312,0.559-0.376c0.085-0.06,0.096-0.064,0.138,0.135c0.021,0.1,0.09,0.201,0.17,0.075
			c0.076-0.126,0.341-0.731,0.439-0.972c-0.016,0.117,0.019,0.29,0.028,0.39c0.009,0.106,0.083,0.117,0.143,0.019
			c0.057-0.098,0.345-0.439,0.519-0.676l-0.214-1.008L39.727,60.397"/>
		<path fill="#008C3E" d="M47.374,61.505c0.141,0.176,0.455,0.621,0.524,0.697c0.069,0.076,0.124,0.051,0.148-0.01
			c0.026-0.062,0.059-0.143,0.095-0.266c0.073,0.101,0.254,0.361,0.307,0.437c0.061,0.085,0.096,0.104,0.124-0.016
			c0.027-0.114,0.036-0.114,0.126-0.068c0.089,0.047,0.399,0.268,0.486,0.328c0.087,0.066,0.166,0.036,0.146-0.082
			c-0.021-0.124-0.091-0.488-0.123-0.589c-0.033-0.105-0.026-0.087,0.076-0.079c0.216,0.018,0.183-0.059,0.086-0.173
			c-0.096-0.112-0.337-0.341-0.47-0.483c0.106,0.052,0.279,0.079,0.378,0.093c0.152,0.021,0.189-0.026,0.088-0.14
			c-0.077-0.086-0.391-0.438-0.566-0.681L47.54,60.3L47.374,61.505"/>
		<path fill="#008C3E" d="M50.264,54.623c0.213-0.081,0.808-0.223,0.941-0.249c0.096-0.018,0.126-0.069,0.038-0.146
			c-0.049-0.041-0.131-0.108-0.238-0.181c0.117-0.042,0.41-0.165,0.496-0.193c0.09-0.028,0.016-0.089-0.044-0.124
			c-0.074-0.044-0.074-0.057-0.007-0.104c0.083-0.058,0.488-0.328,0.576-0.393c0.084-0.062,0.052-0.105-0.066-0.12
			c-0.125-0.02-0.49,0-0.598-0.002c-0.109,0-0.119-0.008-0.092-0.107c0.039-0.156,0.029-0.201-0.107-0.146
			c-0.137,0.057-0.4,0.219-0.58,0.298c0.082-0.085,0.13-0.231,0.16-0.327c0.053-0.162,0.018-0.167-0.088-0.121
			c-0.105,0.045-0.555,0.178-0.836,0.271l-0.578,1.148L50.264,54.623"/>
		<path fill="#32276B" d="M51.957,53.114c-0.125-0.02-0.49,0-0.598-0.002c-0.109,0-0.119-0.008-0.092-0.106
			c0.039-0.157,0.029-0.202-0.107-0.146c-0.137,0.057-0.4,0.219-0.58,0.298c0.082-0.085,0.13-0.231,0.16-0.327
			c0.053-0.162,0.018-0.167-0.088-0.121c-0.086,0.037-0.455,0.149-0.742,0.239c-0.13-1.313-1.805-3.242-4.389-3.242
			c-0.125,0-0.236,0.009-0.334,0.024c-0.008-0.281-0.011-0.815-0.02-0.905c-0.012-0.104-0.069-0.116-0.125-0.082
			c-0.057,0.035-0.149,0.111-0.252,0.191c0-0.125,0.018-0.384,0.018-0.475c0-0.143-0.019-0.155-0.121-0.07
			c-0.05,0.043-0.089,0.005-0.11-0.047c-0.034-0.095-0.208-0.546-0.24-0.649c-0.034-0.101-0.083-0.081-0.138,0.023
			c-0.054,0.116-0.187,0.469-0.221,0.571c-0.041,0.126-0.064,0.126-0.145,0.06c-0.119-0.094-0.146-0.05-0.138,0.025
			c0.02,0.149,0.108,0.495,0.129,0.688c-0.057-0.1-0.187-0.22-0.25-0.298c-0.072-0.079-0.123-0.041-0.125,0.071
			c-0.003,0.104-0.018,0.413-0.021,0.685c-0.023-0.005-0.046-0.005-0.068-0.005c-1.774,0-4.424,1.424-4.652,3.373
			c-0.258-0.074-0.808-0.252-0.899-0.271c-0.101-0.021-0.129,0.028-0.116,0.095c0.015,0.064,0.042,0.168,0.084,0.291
			c-0.117-0.04-0.482-0.158-0.569-0.187c-0.075-0.023-0.089,0.026-0.017,0.136c0.053,0.077,0.042,0.084-0.059,0.09
			c-0.116,0.005-0.546,0.017-0.655,0.017c-0.107,0.001-0.105,0.057-0.02,0.137c0.091,0.09,0.36,0.342,0.445,0.408
			c0.07,0.051,0.067,0.062,0.014,0.091c-0.088,0.05-0.11,0.112,0.035,0.151c0.145,0.033,0.476,0.085,0.667,0.124
			c-0.113,0.046-0.265,0.106-0.358,0.146c-0.1,0.046-0.082,0.12,0.023,0.153c0.082,0.025,0.339,0.115,0.582,0.198
			c-0.225,0.403-0.347,1.018-0.347,1.848c0,2.268,0.862,3.851,2.169,4.152c-0.165,0.235-0.388,0.545-0.425,0.611
			c-0.05,0.09-0.014,0.133,0.054,0.139c0.067,0.005,0.177-0.009,0.319-0.028c-0.073,0.102-0.504,0.523-0.56,0.598
			c-0.053,0.075,0.177,0.029,0.249,0.014c0.055-0.014,0.047,0,0.032,0.103c-0.018,0.099-0.164,0.51-0.195,0.61
			c-0.032,0.104,0.037,0.146,0.143,0.09c0.112-0.058,0.471-0.312,0.559-0.373c0.085-0.06,0.096-0.064,0.138,0.135
			c0.021,0.1,0.09,0.201,0.17,0.075c0.076-0.126,0.341-0.731,0.439-0.972c-0.016,0.117,0.019,0.29,0.028,0.39
			c0.009,0.104,0.083,0.114,0.143,0.017c0.039-0.069,0.194-0.258,0.343-0.446c0.461,0.873,1.889,1.319,3.372,1.319
			c1.931,0,2.735-0.467,3.05-1.018c0.143,0.194,0.306,0.421,0.354,0.474c0.069,0.076,0.124,0.051,0.148-0.01
			c0.026-0.062,0.059-0.143,0.095-0.266c0.073,0.101,0.254,0.361,0.307,0.437c0.061,0.085,0.096,0.104,0.124-0.016
			c0.027-0.114,0.036-0.114,0.126-0.068c0.089,0.047,0.399,0.268,0.486,0.328c0.087,0.066,0.166,0.036,0.146-0.082
			c-0.021-0.124-0.091-0.488-0.123-0.589c-0.033-0.105-0.026-0.087,0.076-0.079c0.216,0.016,0.183-0.06,0.086-0.173
			c-0.096-0.112-0.337-0.341-0.47-0.483c0.106,0.052,0.279,0.079,0.378,0.093c0.152,0.021,0.189-0.026,0.088-0.14
			c-0.063-0.071-0.293-0.329-0.466-0.552c1.097-0.379,2.322-2.131,2.322-4.422c0-0.761-0.296-1.306-0.686-1.642
			c0.256-0.07,0.577-0.146,0.67-0.165c0.096-0.018,0.126-0.069,0.038-0.141c-0.049-0.046-0.131-0.113-0.238-0.186
			c0.117-0.039,0.41-0.165,0.496-0.193c0.09-0.026,0.016-0.089-0.044-0.124c-0.074-0.042-0.074-0.057-0.007-0.104
			c0.083-0.058,0.488-0.328,0.576-0.39C52.107,53.172,52.076,53.129,51.957,53.114 M37.643,53.526
			c0.15,0.056,0.668,0.232,1.051,0.366c-0.299,0.014-0.546,0.161-0.739,0.431c-0.162-0.052-0.366-0.108-0.468-0.135
			c0.062-0.035,0.209-0.116,0.295-0.163c0.128-0.07,0.137-0.152-0.109-0.187c-0.106-0.018-0.553-0.084-0.553-0.084l0.141-0.083
			c-0.063-0.069-0.36-0.315-0.572-0.47c0.146,0.012,0.565-0.011,0.768-0.028l-0.084-0.164c0.084,0.031,0.396,0.133,0.478,0.172
			c0.083,0.039,0.159-0.021,0.143-0.086c-0.015-0.066-0.033-0.143-0.062-0.271c0.086,0.04,0.457,0.189,0.762,0.257
			c-0.002,0.025-0.002,0.049-0.002,0.075c0,0.199,0.056,0.37,0.164,0.54c-0.42-0.107-1.052-0.237-1.163-0.28
			C37.541,53.36,37.424,53.441,37.643,53.526z M40.775,61.662c-0.013-0.07-0.033-0.223-0.049-0.318
			c-0.023-0.145-0.17-0.143-0.225,0.031c-0.032,0.102-0.381,0.817-0.381,0.817l-0.067-0.253c-0.165,0.114-0.476,0.303-0.671,0.448
			c0.067-0.135,0.183-0.564,0.215-0.764l-0.233,0.042c0.053-0.074,0.426-0.473,0.489-0.539c0.062-0.066,0.024-0.119-0.057-0.112
			c-0.067,0.01-0.163,0.007-0.301,0.01c0.055-0.06,0.233-0.295,0.393-0.522c0.085,0.008,0.174,0.017,0.264,0.017
			c0.148,0,0.371-0.025,0.604-0.138c-0.278,0.389-0.684,0.981-0.752,1.072c-0.094,0.129-0.044,0.266,0.093,0.075
			c0.104-0.149,0.613-0.732,0.911-1.081c-0.067,0.298-0.048,0.566,0.04,0.809C40.953,61.396,40.833,61.572,40.775,61.662z
			 M44.476,50.153c-0.026-0.433-0.105-1.176-0.105-1.305c0-0.157-0.121-0.239-0.119-0.001c0.002,0.166-0.008,0.788-0.02,1.209
			c-0.188-0.311-0.39-0.464-0.641-0.519c-0.003-0.173-0.012-0.421-0.02-0.534c0.052,0.051,0.158,0.162,0.229,0.229
			c0.103,0.106,0.22,0.015,0.163-0.157c-0.035-0.102-0.115-0.575-0.115-0.575l0.143,0.119c0.047-0.079,0.196-0.457,0.276-0.706
			c0.021,0.148,0.17,0.567,0.262,0.749l0.146-0.122c0,0.09-0.021,0.408-0.035,0.498c-0.009,0.093,0.07,0.142,0.126,0.109
			c0.057-0.033,0.128-0.089,0.241-0.181c-0.011,0.09-0.04,0.495-0.017,0.806C44.722,49.854,44.572,49.996,44.476,50.153z
			 M49.135,61.1c-0.073-0.007-0.221-0.035-0.318-0.052c-0.144-0.021-0.187,0.12-0.039,0.229c0.089,0.061,0.426,0.444,0.426,0.444
			l-0.229-0.026c0.046,0.097,0.124,0.418,0.174,0.69c-0.105-0.106-0.465-0.32-0.641-0.429l-0.039,0.199
			c-0.055-0.075-0.229-0.356-0.275-0.437c-0.042-0.081-0.108-0.081-0.136-0.021c-0.026,0.062-0.077,0.172-0.114,0.302
			c-0.033-0.061-0.163-0.268-0.309-0.468c0.105-0.283,0.108-0.577,0.088-0.837c0.281,0.335,0.775,0.867,0.849,0.967
			c0.096,0.126,0.24,0.121,0.098-0.067c-0.104-0.137-0.479-0.657-0.724-1.003c0.179,0.074,0.332,0.088,0.523,0.088
			c0.082,0,0.17-0.007,0.256-0.027C48.844,60.784,49.054,61.005,49.135,61.1z M51.123,53.677l0.19,0.122
			c-0.089,0.029-0.386,0.127-0.474,0.144c-0.155,0.03-0.113,0.083-0.04,0.148c0.06,0.051,0.149,0.086,0.244,0.17
			c-0.078,0.019-0.396,0.067-0.685,0.146c-0.217-0.146-0.454-0.235-0.682-0.27c0.521-0.216,1.015-0.46,1.125-0.501
			c0.152-0.054,0.186-0.194-0.035-0.112c-0.164,0.061-0.691,0.229-1.213,0.406c0.242-0.215,0.36-0.483,0.364-0.806
			c0.195-0.065,0.51-0.165,0.621-0.208c-0.028,0.065-0.073,0.196-0.117,0.281c-0.075,0.149-0.065,0.233,0.171,0.094
			c0.095-0.057,0.497-0.242,0.497-0.242l-0.009,0.205c0.089,0.02,0.421-0.012,0.684-0.014C51.631,53.309,51.27,53.533,51.123,53.677
			z"/>
		<path fill="#FFFFFF" d="M46.208,58.597c0.132,0.298,1.214,1.409,1.214,2.151c0,1.208-1.038,1.573-2.893,1.573
			c-2.373,0-3.292-0.963-3.292-1.629c0-0.61,0.647-1.483,1.227-2.122c0.252-0.278-0.127-0.53-0.291-0.209
			c-0.182,0.354-1.033,1.883-1.894,1.883c-1.728,0-2.413-2.493-2.413-4.403c0-1.046,0.348-1.71,1.113-1.71
			c0.369,0,1.198,0.489,2.431,0.871c0.353,0.108,0.586-0.301,0.081-0.359c-1.149-0.13-2.521-0.694-2.521-1.469
			c0-1.801,3.268-3.395,4.304-3.395c1.012,0,1.114,1.52,0.986,3.34c-0.021,0.337,0.38,0.328,0.372-0.015
			c-0.047-0.45-0.086-1.633-0.143-2.139c-0.05-0.456,0.237-0.981,1.042-0.981c1.891,0,4.111,2.021,4.111,3.12
			c0,0.697-1.156,1.352-2.575,1.617c-0.381,0.071-0.136,0.491,0.176,0.329c0.454-0.231,1.491-0.657,2.171-0.657
			c0.64,0,1.378,0.547,1.378,1.649c0,2.514-1.386,4.386-2.312,4.386c-0.839,0-1.5-1.112-1.989-2.004
			C46.362,58.188,46.078,58.304,46.208,58.597"/>
		<path fill="#32276B" d="M44.99,52.973c-0.008-0.16-0.119-1.192-0.119-1.448c0-0.776,0.216-1.136,0.762-1.136
			c0.549,0,1.121,0.91,1.662,0.91c0.133,0,0.264-0.072,0.336-0.162c0.054-0.064,0.173-0.011,0.146,0.085
			c-0.029,0.1-0.039,0.233-0.039,0.365c0,0.78,1.43,0.705,1.43,1.405c0,0.945-1.547,1.318-2.064,1.312
			c-0.292-0.001-0.167-0.098-0.047-0.098c0.891-0.006,1.936-0.647,1.936-1.158c0-0.671-1.738-0.562-1.371-1.729
			c-0.795,0.584-1.307-0.711-1.968-0.711c-0.368,0-0.595,0.229-0.595,0.897c0,0.238,0.036,1.231,0.053,1.466
			C45.124,53.204,45.002,53.131,44.99,52.973"/>
		<path fill="#32276B" d="M41.729,54.27c-0.28-0.145-1.143-0.278-1.386-0.358c-0.858-0.277-0.929-0.743-0.827-1.062
			c0.148-0.484,1.236-0.787,1.396-1.307c0.045-0.146,0.01-0.282-0.052-0.369c-0.055-0.079,0.035-0.179,0.107-0.13
			c0.061,0.04,0.253,0.131,0.355,0.164c0.699,0.218,1.175-1.136,1.842-0.915c1.024,0.337,0.493,2.137,0.51,2.593
			c0.007,0.177-0.121,0.23-0.138,0.037c-0.033-0.441,0.45-2.148-0.457-2.431c-0.64-0.201-0.983,1.479-2.048,0.748
			c0.232,0.916-1.101,1.062-1.284,1.647c-0.111,0.358,0.156,0.703,0.686,0.879c0.225,0.073,1.176,0.289,1.348,0.421
			C41.868,54.25,41.917,54.369,41.729,54.27"/>
		<path fill="#32276B" d="M41.891,57.804c-0.113,0.188-0.538,1.043-0.692,1.249c-0.449,0.619-1.091,0.697-1.484,0.411
			c-0.385-0.278-0.412-1.458-0.773-1.718c-0.116-0.085-0.259-0.099-0.377-0.072c-0.09,0.022-0.166-0.082-0.08-0.139
			c0.07-0.047,0.214-0.194,0.266-0.283c0.376-0.627-0.771-1.425-0.285-2.075c0.524-0.698,2.07-0.013,2.654,0.413
			c0.15,0.109,0.16,0.251-0.006,0.141c-0.867-0.558-2.077-0.941-2.46-0.414c-0.396,0.548,1.019,1.495,0.037,2.222
			c0.945-0.004,0.678,1.37,1.172,1.729c0.278,0.203,0.821,0.137,1.164-0.255c0.159-0.177,0.69-1.126,0.784-1.292
			C41.902,57.554,42.005,57.618,41.891,57.804"/>
		<path fill="#32276B" d="M45.692,58.892c0.104,0.153,0.67,0.833,0.849,1.021c0.504,0.525,0.48,1.082,0.158,1.385
			c-0.405,0.379-1.491-0.078-1.952,0.284c-0.093,0.074-0.151,0.251-0.165,0.323c-0.021,0.151-0.154,0.127-0.176,0.046
			c-0.022-0.083-0.141-0.275-0.188-0.341c-0.429-0.59-1.624,0.092-2.081-0.442c-0.553-0.646,0.285-1.82,0.73-2.212
			c0.13-0.112,0.269-0.063,0.133,0.051c-0.781,0.654-1.007,1.622-0.753,1.971c0.395,0.543,1.896-0.414,2.225,0.78
			c0.365-0.987,1.529-0.271,2.025-0.633c0.277-0.2,0.26-0.638-0.05-1.061c-0.138-0.192-0.776-0.965-0.862-1.095
			C45.503,58.835,45.586,58.74,45.692,58.892"/>
		<path fill="#32276B" d="M47.515,55.443c0.433-0.044,0.988-0.146,1.288-0.294c0.681-0.344,1.17-0.114,1.309,0.393
			c0.125,0.461-0.395,1.419-0.249,1.922c0.032,0.114,0.187,0.246,0.259,0.267c0.074,0.021,0.071,0.172-0.014,0.175
			c-0.098,0.005-0.262,0.031-0.381,0.071c-0.693,0.234-0.358,1.507-1.027,1.722c-0.937,0.306-1.757-1.117-1.871-1.55
			c-0.067-0.265,0.041-0.229,0.091-0.112c0.371,0.933,1.167,1.617,1.689,1.448c0.639-0.209,0.113-1.691,1.335-1.703
			c-0.728-0.605,0.151-1.608-0.039-2.189c-0.124-0.386-0.475-0.518-1.039-0.289c-0.495,0.205-1.063,0.259-1.356,0.253
			C47.308,55.555,47.227,55.472,47.515,55.443"/>
		<path fill="#32276B" d="M49.076,57.421c-0.107-0.082-1.916-0.597-2.368-0.689c0.417,0.068,1.784-0.192,2.137-0.382
			c0.1-0.053,0.096-0.2-0.053-0.157c-0.244,0.07-1.361,0.39-2.098,0.435c0.066-0.218,0.108-0.451,0.108-0.697
			c0-0.586-0.268-1.147-0.698-1.608c-0.054-0.06-0.111-0.111-0.18-0.164c0.624-0.474,1.592-0.784,1.823-0.815
			c0.195-0.024,0.234-0.199,0.042-0.194c-0.237,0.005-1.439,0.369-1.943,0.95c-0.001-0.002-0.004-0.004-0.007-0.004
			c0.311-0.448,1.162-1.738,1.319-1.889c0.181-0.177,0.006-0.263-0.106-0.182c-0.106,0.072-1.072,1.504-1.353,1.981
			c-0.002-0.001-0.006-0.001-0.007-0.004c0.181-0.447,0.336-1.713,0.271-2.092c-0.02-0.112-0.162-0.151-0.167,0.004
			c-0.008,0.233-0.077,1.314-0.221,2.026c-0.372-0.181-0.838-0.286-1.34-0.286c-0.456,0-0.812,0.128-1.117,0.335
			c-0.352-0.733-0.324-1.955-0.277-2.211c0.036-0.193-0.117-0.285-0.173-0.098c-0.073,0.236-0.095,1.621,0.37,2.241
			c-0.218-0.299-1.355-1.722-1.46-1.936c-0.112-0.228-0.249-0.089-0.208,0.044c0.039,0.13,1.2,1.609,1.511,1.953
			c-0.299-0.303-1.556-0.896-1.955-0.95c-0.112-0.017-0.195,0.105-0.049,0.159c0.254,0.09,1.481,0.57,2.04,0.945
			c-0.154,0.125-0.296,0.272-0.434,0.424c-0.365,0.411-0.531,0.955-0.531,1.62c0,0.155,0.017,0.306,0.046,0.453
			c-0.82,0.021-1.95-0.536-2.159-0.692c-0.158-0.116-0.286-0.026-0.143,0.106c0.182,0.171,1.41,0.809,2.173,0.669
			c-0.366,0.063-2.125,0.425-2.385,0.443c-0.253,0.019-0.19,0.185-0.053,0.208c0.134,0.021,1.976-0.357,2.421-0.484
			c-0.402,0.133-1.494,0.995-1.723,1.325c-0.064,0.095,0.008,0.223,0.121,0.115c0.202-0.191,1.23-1.141,1.812-1.451
			c0.166,0.496,0.528,0.924,1.108,1.193c0.291,0.132,0.666,0.264,1.062,0.298c-0.172,0.864-0.862,1.82-1.047,1.995
			c-0.143,0.137-0.074,0.302,0.082,0.183c0.197-0.152,1.029-1.257,1.017-2.035c0.003,0.373,0.086,2.192,0.044,2.429
			c-0.041,0.245,0.152,0.215,0.196,0.084c0.041-0.128-0.027-2.007-0.08-2.466c0.066,0.418,0.736,1.638,1.025,1.917
			c0.082,0.076,0.222,0.028,0.133-0.102c-0.279-0.408-0.893-1.288-1.09-1.998c0.625-0.029,1.485-0.365,1.836-0.969
			c0.081-0.14,0.165-0.296,0.237-0.469c0.687,0.416,1.34,1.335,1.447,1.555c0.086,0.178,0.263,0.165,0.199-0.021
			c-0.082-0.235-0.877-1.368-1.62-1.595c0.353,0.111,2.11,0.596,2.322,0.705C49.159,57.696,49.188,57.502,49.076,57.421"/>
		<path fill="#FFEA00" d="M44.311,55.608c0.234,0,0.401,0.198,0.401,0.332c0,0.203-0.188,0.366-0.356,0.366
			c-0.167,0-0.357-0.163-0.357-0.354C43.999,55.765,44.16,55.608,44.311,55.608"/>
		<path fill="#FFEA00" d="M43.395,55.382c0.209,0,0.303,0.239,0.303,0.36c0,0.182-0.185,0.354-0.334,0.354
			c-0.153,0-0.264-0.169-0.264-0.343C43.1,55.586,43.258,55.382,43.395,55.382"/>
		<path fill="#FFEA00" d="M43.613,56.34c0.211,0,0.317,0.176,0.317,0.299c0,0.182-0.127,0.332-0.276,0.332
			c-0.153,0-0.394-0.109-0.394-0.283C43.26,56.52,43.479,56.34,43.613,56.34"/>
		<path fill="#FFEA00" d="M44.621,56.7c0.211,0,0.317,0.178,0.317,0.296c0,0.183-0.128,0.333-0.277,0.333
			c-0.153,0-0.322-0.147-0.322-0.32C44.339,56.843,44.486,56.7,44.621,56.7"/>
		<path fill="#FFEA00" d="M45.264,56.073c0.21,0,0.317,0.176,0.317,0.299c0,0.18-0.125,0.332-0.278,0.332
			c-0.149,0-0.318-0.149-0.318-0.321C44.984,56.216,45.129,56.073,45.264,56.073"/>
		<path fill="#FFEA00" d="M45.064,54.995c0.211,0,0.357,0.228,0.357,0.349c0,0.18-0.125,0.332-0.275,0.332
			c-0.152,0-0.32-0.147-0.32-0.32C44.827,55.187,44.928,54.995,45.064,54.995"/>
		<path fill="#FFEA00" d="M46.08,54.995c0.202,0,0.305,0.178,0.305,0.295c0,0.175-0.121,0.321-0.268,0.321s-0.31-0.142-0.31-0.309
			C45.807,55.138,45.947,54.995,46.08,54.995"/>
		<path fill="#FFEA00" d="M45.324,54.124c0.204,0,0.308,0.169,0.308,0.289c0,0.176-0.125,0.322-0.268,0.322
			c-0.149,0-0.312-0.143-0.312-0.312C45.051,54.261,45.192,54.124,45.324,54.124"/>
		<path fill="#FFEA00" d="M46.15,56.169c0.203,0,0.307,0.171,0.307,0.289c0,0.177-0.157,0.375-0.303,0.375
			c-0.148,0-0.279-0.194-0.279-0.362C45.875,56.307,46.017,56.169,46.15,56.169"/>
		<path fill="#FFEA00" d="M45.479,57.144c0.205,0,0.422,0.145,0.422,0.264c0,0.175-0.227,0.413-0.374,0.413
			c-0.144,0-0.349-0.08-0.349-0.239C45.178,57.419,45.347,57.144,45.479,57.144"/>
		<path fill="#FFEA00" d="M44.11,57.458c0.206,0,0.445,0.245,0.445,0.362c0,0.178-0.182,0.293-0.327,0.293
			c-0.148,0-0.312-0.145-0.312-0.312C43.916,57.638,43.977,57.458,44.11,57.458"/>
		<path fill="#FFEA00" d="M43.079,57.159c0.204,0,0.387,0.17,0.387,0.286c0,0.176-0.204,0.324-0.349,0.324
			c-0.15,0-0.312-0.143-0.312-0.311C42.805,57.295,42.946,57.159,43.079,57.159"/>
		<path fill="#FFEA00" d="M42.502,56.173c0.204,0,0.306,0.17,0.306,0.289c0,0.176-0.123,0.323-0.269,0.323
			c-0.147,0-0.312-0.146-0.312-0.313C42.228,56.309,42.372,56.173,42.502,56.173"/>
		<path fill="#FFEA00" d="M42.616,54.954c0.204,0,0.306,0.174,0.306,0.293c0,0.176-0.18,0.371-0.326,0.371
			c-0.146,0-0.252-0.194-0.252-0.36C42.344,55.094,42.485,54.954,42.616,54.954"/>
		<path fill="#FFEA00" d="M44.338,53.865c0.204,0,0.305,0.173,0.305,0.29c0,0.178-0.121,0.323-0.27,0.323
			c-0.145,0-0.309-0.145-0.309-0.312C44.064,54.004,44.204,53.865,44.338,53.865"/>
		<path fill="#FFEA00" d="M43.237,54.162c0.203,0,0.306,0.172,0.306,0.292c0,0.175-0.123,0.323-0.269,0.323
			c-0.146,0-0.312-0.146-0.312-0.314C42.962,54.301,43.104,54.162,43.237,54.162"/>
		<path fill="#FFEA00" d="M44.092,54.713c0.21,0,0.314,0.176,0.314,0.298c0,0.184-0.125,0.333-0.274,0.333
			c-0.153,0-0.322-0.147-0.322-0.319C43.81,54.854,43.958,54.713,44.092,54.713"/>
		<path fill="#32276B" d="M44.33,13.988c1.207,0,1.703,0.787,1.201,1.996c0.229,0,0.33-0.232,0.492-0.715
			c0.849,0.329,0.982,1.315,0.277,1.91c0.437-0.2,0.799-0.173,1.053,0.022c-0.348,0.212-0.455,0.393-0.432,0.579
			c0.265-0.183,0.495-0.393,1.018-0.393c0.54,0,1.094,0.358,1.094,1.219c0,1.33-0.825,1.45-1.882,1.209
			c0,0.055,0.189,0.295,0.376,0.394c-0.853,0.253-1.893,0.017-2.613-0.404c0.407,1.319,2.422,1.858,3.938,0.614
			c0.609,1.6,3.084,1.827,4.189,0.48c-1.037,0.476-2.174,0.207-2.706-0.302c0.197-0.06,0.554-0.205,0.706-0.401
			c-0.838,0.008-1.217-0.314-1.217-0.962c0-0.636,0.666-1.343,1.443-1.343c0.562,0,0.833,0.386,1.032,0.854
			c0.106-0.192,0.111-0.628,0.065-0.981c0.987-0.042,1.175,0.569,1.348,0.941c0.295-1.28,1.152-2.201,3.033-1.862
			c-0.317,0.316-0.552,0.655-0.731,1.052c0.234-0.202,0.541-0.464,1.185-0.464c0.834,0,1.276,0.577,1.271,1.14
			c-0.005,0.603-0.38,1.015-0.66,1.217c-0.401-0.688-0.926-0.783-1.301-0.783c-1.082,0-1.551,0.472-1.675,0.84
			c0.333,0.628-0.071,1.134-0.77,1.062c-0.121,0.227-0.873,1.574-1.125,1.874c0.163,0.497,0.123,1.104-0.25,1.649
			c-0.016,0.11-0.087,0.646-0.096,0.755c0.1,0.052,0.237,0.197,0.237,0.377c0,1.07-3.807,1.462-8.549,1.462
			c-2.455,0-8.564-0.275-8.564-1.402c0-0.198,0.105-0.318,0.258-0.417c-0.021-0.077-0.062-0.688-0.082-0.755
			c-0.336-0.548-0.348-1.126-0.142-1.579c-0.253-0.297-1.071-1.729-1.192-1.956c-0.895,0.007-1.004-0.594-0.713-1.09
			c-0.387-0.452-0.898-0.858-1.668-0.858c-0.542,0-0.935,0.109-1.302,0.664c-0.257-0.193-0.583-0.479-0.587-1.084
			c-0.007-0.678,0.595-1.093,1.159-1.093c0.575,0,0.938,0.227,1.254,0.569c-0.122-0.36-0.459-0.908-0.718-1.202
			c1.84-0.316,2.67,0.659,2.968,1.939c0.171-0.374,0.46-1.069,1.445-1.024c-0.064,0.354-0.082,0.665,0.005,0.917
			c0.239-0.355,0.462-0.782,0.981-0.782c0.708,0,1.486,0.853,1.486,1.464c0,0.638-0.441,0.915-1.376,0.856
			c0.151,0.196,0.394,0.341,0.696,0.411c-0.51,0.535-1.566,0.694-2.645,0.274c1.265,1.475,3.64,1.063,4.203-0.444
			c1.336,1.249,3.607,0.719,4.047-0.651c-0.796,0.528-1.808,0.619-2.66,0.45c0.162-0.114,0.301-0.297,0.344-0.406
			c-1.153,0.31-1.814-0.037-1.814-1.188c0-0.674,0.482-1.205,1.045-1.205c0.352,0,0.729,0.134,1.047,0.373
			c0.023-0.188-0.061-0.359-0.409-0.569c0.255-0.196,0.578-0.256,1.016-0.056c-0.629-0.538-0.589-1.594,0.329-1.91
			c0.114,0.443,0.235,0.731,0.454,0.764C42.648,14.75,43.125,13.988,44.33,13.988"/>
		<path fill="#FFEA00" d="M32.733,18.458c-0.363-0.621-0.832-0.725-1.196-0.722c-0.534,0.004-0.938,0.415-0.938,0.895
			c0,0.256,0.094,0.464,0.205,0.56C31.031,18.889,31.464,18.338,32.733,18.458"/>
		<path fill="#FFEA00" d="M57.877,19.208c0.135-0.113,0.211-0.39,0.211-0.617c0-0.499-0.404-0.864-0.97-0.868
			c-0.575-0.005-0.877,0.191-1.225,0.679C57.208,18.308,57.587,18.785,57.877,19.208"/>
		<path fill="#FFEA00" d="M44.271,26.756c3.57,0.028,8.032-0.354,8.032-1.117c0-0.493-3.675-1.291-8-1.291
			c-4.387,0-7.951,0.794-7.951,1.295C36.352,26.095,40.12,26.723,44.271,26.756"/>
		<path fill="#FFEA00" d="M44.271,26.756c3.57,0.028,8.032-0.354,8.032-1.117c0-0.493-3.675-1.291-8-1.291
			c-4.387,0-7.951,0.794-7.951,1.295C36.352,26.095,40.12,26.723,44.271,26.756"/>
		<path fill="#FFEA00" d="M34.67,20.648c0.156,0.252,1.195,1.913,1.33,2.092c0.446,0.086,1.184,0.19,1.421,0.243
			c0.282,0.061,0.396,0.519,0.141,0.665c-0.242,0.141-1.165,0.848-1.318,0.955c0.007,0.122,0.041,0.354,0.049,0.462
			c2.079-0.761,4.804-1.036,8.031-1.036c3.909,0,6.209,0.445,7.971,1.064c0.021-0.191,0.05-0.32,0.069-0.572
			c-0.603-0.343-1.155-0.741-1.367-0.915c-0.22-0.182-0.077-0.59,0.123-0.646c0.428-0.12,1.064-0.241,1.594-0.346
			c0.05-0.049,1.053-1.646,1.264-2.018c0.057-0.181,0.309-0.578,0.53-0.695c0.404-0.896,1.307-1.252,2.632-1.046
			c-0.458-0.321-1.16-0.246-1.421-0.179c-0.057,0.014-0.179,0-0.171-0.122c0.161-0.617,0.275-0.983,0.612-1.466
			c-1.697-0.09-2.26,1.266-2.309,2.103c-0.005,0.094-0.206,0.174-0.229,0.065c-0.116-0.524-0.381-1.172-1.01-1.276
			c0.005,0.395,0.017,0.699-0.132,0.956c-0.089,0.154-0.287,0.111-0.318,0.045c-0.226-0.477-0.488-0.785-0.799-0.785
			c-0.502,0-0.75,0.291-0.582,0.562c0.064,0.106-0.045,0.164-0.159,0.13c-0.252-0.075-0.467,0.034-0.467,0.432
			c0,0.481,0.429,0.719,1.094,0.647c0.162-0.019,0.218,0.091,0.145,0.206c-0.07,0.109-0.328,0.329-0.505,0.435
			c0.15,0.116,0.556,0.263,1.203,0.263c0.558,0,1.11-0.202,1.322-0.391c0.096-0.086,0.264-0.02,0.182,0.208
			c-0.439,1.203-3.328,2.457-4.891,0.203c-1.322,0.964-3.434,0.822-4.125-1.039c-0.079-0.214,0.124-0.433,0.361-0.282
			c0.173,0.111,0.732,0.379,1.281,0.454c0.212,0.026,0.564,0.07,0.799,0.015c-0.096-0.127-0.213-0.347-0.235-0.412
			c-0.043-0.124,0.078-0.19,0.221-0.101c0.149,0.091,0.27,0.192,0.639,0.192c0.624,0,0.965-0.486,0.965-0.68
			c0-0.264-0.147-0.32-0.337-0.352c-0.088-0.014-0.104-0.128-0.043-0.157c0.195-0.092,0.249-0.199,0.249-0.382
			c0-0.227-0.224-0.462-0.651-0.462c-0.348,0-0.669,0.176-0.896,0.293c-0.064,0.033-0.164,0.018-0.213-0.066
			c-0.058-0.133-0.059-0.356,0.149-0.657c-0.274-0.058-1.119,0.249-1.835,0.934c-0.116,0.109-0.287-0.135-0.189-0.196
			c0.958-0.587,1.586-1.195,1.586-1.706c0-0.297-0.137-0.499-0.302-0.615c-0.172,0.385-0.484,0.607-0.683,0.607
			c-0.088,0-0.206-0.063-0.182-0.137c0.039-0.122,0.174-0.594,0.174-0.91c0-0.478-0.312-0.862-0.61-0.862
			c-0.222,0-0.36,0.117-0.409,0.255c-0.03,0.087-0.161,0.08-0.202,0c-0.093-0.188-0.215-0.261-0.403-0.261
			c-0.324,0-0.598,0.398-0.598,0.862c0,0.419,0.174,0.847,0.174,0.923c0.003,0.076-0.131,0.124-0.22,0.124
			c-0.332,0-0.559-0.289-0.637-0.602c-0.177,0.079-0.276,0.391-0.276,0.631c0,0.568,0.514,1.009,1.563,1.706
			c0.094,0.062-0.036,0.287-0.159,0.188c-0.785-0.648-1.555-0.967-1.828-0.908c0.203,0.393,0.164,0.535,0.108,0.668
			c-0.036,0.06-0.168,0.091-0.23,0.06c-0.224-0.116-0.519-0.286-0.785-0.286c-0.443,0-0.696,0.266-0.696,0.583
			c0,0.057,0.062,0.216,0.242,0.28c0.052,0.021,0.023,0.118-0.042,0.128c-0.188,0.031-0.281,0.186-0.281,0.33
			c0,0.329,0.311,0.621,0.77,0.619c0.369-0.004,0.653-0.07,0.799-0.189c0.129-0.105,0.229-0.007,0.177,0.116
			c-0.028,0.063-0.175,0.366-0.228,0.472c0.66,0.06,1.467-0.094,2.075-0.475c0.226-0.143,0.374,0.103,0.347,0.248
			c-0.257,1.335-2.448,2.338-4.151,1.11c-1.727,2.063-4.062,1.191-4.861-0.239c-0.086-0.15-0.059-0.394,0.16-0.204
			c0.275,0.24,0.763,0.355,1.37,0.355c0.52,0,0.85-0.03,1.137-0.219c-0.249-0.113-0.489-0.354-0.558-0.462
			c-0.075-0.113-0.01-0.259,0.15-0.234c0.9,0.135,1.125-0.237,1.124-0.526c-0.004-0.395-0.198-0.606-0.493-0.527
			c-0.162,0.044-0.234-0.054-0.184-0.126c0.185-0.266-0.045-0.568-0.473-0.568c-0.308,0-0.531,0.261-0.78,0.647
			c-0.061,0.098-0.265,0.062-0.321-0.035c-0.109-0.192-0.166-0.502-0.086-0.854c-0.575,0.096-0.957,0.688-1.089,1.296
			c-0.022,0.104-0.257,0.033-0.263-0.067c-0.04-0.694-0.631-2.174-2.227-2.105c0.334,0.45,0.467,0.809,0.614,1.458
			c0.007,0.121-0.156,0.146-0.213,0.137c-0.362-0.053-0.766-0.084-1.265,0.157c0.818-0.134,1.836,0.107,2.465,1.041
			C34.336,19.962,34.663,20.334,34.67,20.648"/>
		<path fill="#32276B" d="M44.047,21.441L44.047,21.441c-0.182,0.167-0.624,0.495-0.859,0.655c-0.088,0.061-0.137,0.153-0.141,0.266
			c-0.005,0.122,0.046,0.233,0.133,0.303c0.194,0.152,0.596,0.477,0.843,0.69c0.159,0.135,0.43,0.108,0.557-0.003
			c0.128-0.113,0.705-0.512,0.863-0.608c0.092-0.057,0.143-0.153,0.149-0.273c0.002-0.128-0.051-0.242-0.146-0.308
			c-0.154-0.109-0.657-0.522-0.799-0.687c-0.066-0.076-0.166-0.121-0.285-0.127C44.303,21.344,44.15,21.349,44.047,21.441"/>
		<path fill="#32276B" d="M39.082,23.315c-0.031-0.147-0.084-0.504-0.096-0.624c0.127-0.072,0.223-0.202,0.271-0.361
			c0.375-0.041,1.195-0.161,1.525-0.214c0.091,0.124,0.256,0.217,0.43,0.242c0.053,0.176,0.098,0.556,0.105,0.692
			c-0.143,0.098-0.247,0.25-0.302,0.367c-0.847,0.09-1.425,0.164-1.577,0.189C39.373,23.454,39.27,23.367,39.082,23.315"/>
		<path fill="#32276B" d="M34.312,19.486c-0.042-0.548-0.462-1.493-0.807-1.727c-0.073-0.049-0.182-0.049-0.106,0.026
			c0.322,0.337,0.629,1.219,0.725,1.608C34.143,19.477,34.319,19.589,34.312,19.486"/>
		<path fill="#32276B" d="M43.911,18.793c0-0.276,0.194-0.519,0.452-0.519c0.284,0,0.423,0.228,0.423,0.508
			c0,0.449-0.202,0.548-0.45,0.548C44.044,19.33,43.911,19.062,43.911,18.793"/>
		<path fill="#32276B" d="M41.191,18.581c0.232-0.037,2.017,0.007,2.188,0.026c0.17,0.021,0.152,0.206,0.046,0.198
			c-0.248-0.017-2.004-0.133-2.182-0.12C41.08,18.697,41.074,18.597,41.191,18.581"/>
		<path fill="#32276B" d="M44.508,17.773c-0.007,0.084-0.272,0.103-0.264-0.021c0.016-0.225,0.063-2.158,0.062-2.263
			c-0.004-0.201,0.129-0.206,0.14-0.012C44.459,15.688,44.518,17.65,44.508,17.773"/>
		<path fill="#32276B" d="M45.324,18.586c0.114-0.024,1.968,0.045,2.178,0.042c0.116,0,0.133,0.112,0.013,0.119
			c-0.245,0.013-1.918,0.005-2.145,0.049C45.197,18.829,45.159,18.621,45.324,18.586"/>
		<path fill="#32276B" d="M37.101,19.375c-0.083,0.062-1.958,0.664-2.072,0.729c-0.085,0.05-0.153-0.126-0.117-0.153
			c0.066-0.045,2.08-0.635,2.145-0.666C37.121,19.255,37.176,19.32,37.101,19.375"/>
		<path fill="#32276B" d="M54.35,19.486c0.043-0.548,0.515-1.418,0.73-1.69c0.054-0.064,0.167-0.058,0.107,0.028
			c-0.288,0.415-0.552,1.181-0.648,1.57C54.52,19.477,54.342,19.589,54.35,19.486"/>
		<path fill="#32276B" d="M51.562,19.375c0.081,0.062,1.836,0.639,1.947,0.705c0.088,0.048,0.154-0.126,0.115-0.155
			c-0.062-0.044-1.953-0.608-2.02-0.64C51.541,19.255,51.487,19.32,51.562,19.375"/>
		<path fill="#32276B" d="M49.496,23.301c0.032-0.15,0.086-0.503,0.096-0.622c-0.125-0.074-0.223-0.204-0.271-0.362
			c-0.375-0.043-1.195-0.162-1.525-0.214c-0.091,0.123-0.256,0.214-0.428,0.242c-0.056,0.173-0.097,0.556-0.107,0.692
			c0.144,0.098,0.248,0.251,0.303,0.365c0.847,0.093,1.426,0.166,1.578,0.192C49.205,23.438,49.306,23.353,49.496,23.301"/>
		<path fill="#32276B" d="M44.303,24.669c4.721,0.034,7.157,0.609,7.152,0.965c-0.002,0.234-0.483,0.345-0.547,0.354
			c-0.096,0.02-0.157-0.133-0.062-0.167c0.124-0.049,0.215-0.099,0.215-0.165c0-0.26-2.259-0.71-6.76-0.744
			c-3.805-0.029-6.613,0.494-6.616,0.791c0,0.06,0.045,0.06,0.156,0.09c0.068,0.021,0.064,0.148-0.01,0.148
			c-0.229-0.002-0.558-0.097-0.556-0.236C37.28,25.138,41.082,24.643,44.303,24.669"/>
		<path fill="#FFEA00" d="M44.207,21.603c0.025-0.023,0.143-0.033,0.18,0.012c0.167,0.189,0.695,0.622,0.85,0.732
			c0.043,0.028,0.039,0.138,0.011,0.154c-0.164,0.098-0.753,0.505-0.902,0.638c-0.021,0.018-0.125,0.036-0.167,0
			c-0.245-0.212-0.652-0.541-0.855-0.699c-0.04-0.03-0.046-0.13-0.007-0.159C43.559,22.114,44.011,21.78,44.207,21.603"/>
		<path fill="#FFEA00" d="M36.112,24.256c0.027,0.022,0.083,0.025,0.158-0.025c0.328-0.242,0.845-0.659,1.127-0.826
			c0.037-0.016,0.011-0.165-0.055-0.17c-0.092-0.005-0.866-0.155-1.246-0.218c-0.068-0.004-0.12,0.01-0.129,0.061
			C35.805,23.401,35.834,23.907,36.112,24.256"/>
		<path fill="#FFEA00" d="M52.635,22.963c-0.017-0.036-0.075-0.045-0.168-0.033c-0.439,0.051-1.153,0.243-1.246,0.263
			c-0.062,0.018-0.085,0.179-0.032,0.202c0.307,0.18,0.859,0.608,1.153,0.755c0.043,0.022,0.07,0.012,0.098-0.007
			C52.72,23.99,52.787,23.216,52.635,22.963"/>
		<path fill="#FFEA00" d="M39.318,23.186c0.085,0.029,0.121,0.061,0.164,0.127c0.315-0.05,1.028-0.127,1.375-0.164
			c0.044-0.076,0.086-0.115,0.144-0.151c-0.01-0.16-0.039-0.396-0.082-0.526c-0.053-0.018-0.129-0.049-0.177-0.112
			c-0.378,0.06-1.016,0.154-1.381,0.194c-0.023,0.058-0.048,0.102-0.121,0.148C39.251,22.807,39.288,23.042,39.318,23.186"/>
		<path fill="#FFEA00" d="M49.191,23.184c-0.085,0.031-0.121,0.059-0.166,0.126c-0.315-0.048-1.028-0.126-1.375-0.164
			c-0.042-0.073-0.087-0.116-0.141-0.151c0.011-0.16,0.037-0.396,0.081-0.528c0.054-0.013,0.128-0.046,0.178-0.109
			c0.376,0.06,1.013,0.155,1.38,0.195c0.021,0.057,0.049,0.1,0.121,0.148C49.26,22.805,49.223,23.04,49.191,23.184"/>
		<path fill="#32276B" d="M93.006,19.536c-0.258-2.808-0.574-3.54-2.424-3.54H89.75v8.422c0,0.747,0.335,0.875,0.768,0.875h1.371
			v0.559h-5.775v-0.559h1.374c0.431,0,0.764-0.128,0.764-0.875v-8.422h-0.826c-1.851,0-2.17,0.732-2.426,3.54h-0.526v-4.149h9.058
			v4.149H93.006"/>
		<path fill="#32276B" d="M98.986,25.85v-0.525h0.508c0.45,0,0.784-0.129,0.784-0.876v-4.036c0-0.351-0.095-1.26-1.102-1.26
			c-1.386,0-2.296,1.482-2.296,2.998v2.298c0,0.747,0.335,0.876,0.783,0.876h0.511v0.525h-4.148v-0.525h0.687
			c0.446,0,0.766-0.143,0.766-0.876v-7.657c0-0.748-0.337-0.877-0.782-0.877h-0.671v-0.527h2.855v4.484
			c0.415-0.799,1.293-1.469,2.568-1.469c1.326,0,2.122,0.928,2.234,1.769v4.277c0,0.747,0.317,0.876,0.765,0.876h0.685v0.525H98.986
			"/>
		<path fill="#32276B" d="M106.883,25.995c-2.555,0-3.464-1.882-3.464-3.397c0-2.059,1.18-4.18,3.332-4.18
			c1.884,0,2.904,1.707,2.938,3.732l-0.207,0.255h-4.627c0,1.932,0.764,3.001,2.233,3.001c1.563,0,2.136-1.278,2.122-2.267h0.573
			C109.832,24.497,109.018,25.995,106.883,25.995 M106.801,19.041c-1.036,0-1.754,1.069-1.912,2.743h3.348
			C108.364,20.669,107.934,19.041,106.801,19.041z"/>
		<path fill="#32276B" d="M93.559,30.975c-0.433,0-0.752,0.129-0.752,0.878v5.567c0,1.418-0.685,3.683-3.699,3.683
			c-2.503,0-3.619-1.562-3.78-2.804v-6.446c0-0.749-0.319-0.878-0.75-0.878h-1.035v-0.557h5.342v0.557h-1.292
			c-0.43,0-0.765,0.129-0.765,0.878v5.902c0,1.977,1.371,2.646,2.487,2.646c1.468,0,2.682-0.905,2.682-2.98v-5.567
			c0-0.749-0.321-0.878-0.75-0.878h-1.229v-0.557h4.577v0.557H93.559"/>
		<path fill="#32276B" d="M98.949,40.881v-0.526h0.51c0.447,0,0.783-0.128,0.783-0.893V35.49c0-0.351-0.095-1.261-1.103-1.261
			c-1.387,0-2.12,1.483-2.12,3.017v2.216c0,0.765,0.335,0.893,0.783,0.893h0.511v0.526h-4.15v-0.526h0.688
			c0.447,0,0.765-0.128,0.765-0.893v-4.483c0-0.749-0.334-0.875-0.782-0.875h-0.685v-0.527h2.76l0.096,1.42
			c0.414-0.813,1.115-1.517,2.408-1.517c1.324,0,2.121,0.925,2.234,1.77v4.213c0,0.75,0.318,0.893,0.764,0.893h0.575v0.526H98.949"
			/>
		<path fill="#32276B" d="M103.446,40.881v-0.526h0.559c0.447,0,0.781-0.128,0.781-0.876v-4.5c0-0.747-0.334-0.875-0.781-0.875
			h-0.685v-0.527h2.871v5.902c0,0.748,0.335,0.876,0.781,0.876h0.686v0.526H103.446 M105.328,32.253
			c-0.477,0-0.876-0.432-0.876-0.973c0-0.544,0.399-0.974,0.876-0.974c0.48,0,0.879,0.43,0.879,0.974
			C106.207,31.821,105.808,32.253,105.328,32.253z"/>
		<path fill="#32276B" d="M115.043,34.104c-0.511,0-0.895,0.334-1.117,0.909l-2.36,5.868h-0.623l-2.185-5.868
			c-0.27-0.734-0.669-0.909-1.165-0.909h-0.51v-0.527h4.308v0.527h-0.622c-0.449,0-0.83,0.208-0.559,0.925l1.501,4.082l1.449-3.843
			c0.225-0.574,0.225-1.164-0.478-1.164h-0.51v-0.527h3.11v0.527H115.043"/>
		<path fill="#32276B" d="M118.76,41.103c-2.553,0-3.463-1.96-3.463-3.476c0-2.057,1.179-4.242,3.332-4.242
			c1.885,0,2.905,1.708,2.938,3.73l-0.207,0.256h-4.627c0,1.931,0.768,3.143,2.234,3.143c1.562,0,2.135-1.277,2.122-2.263h0.573
			C121.709,39.605,120.896,41.103,118.76,41.103 M118.679,34.006c-1.035,0-1.753,1.069-1.911,2.744h3.347
			C120.242,35.634,119.811,34.006,118.679,34.006z"/>
		<path fill="#32276B" d="M127.42,35.953c-0.512,0-0.783-0.432-0.783-0.798c0-0.59,0.334-0.974,0.799-1.149
			c-1.197-0.255-2.331,1.197-2.331,3.192v2.264c0,0.75,0.337,0.893,0.781,0.893h0.847v0.526h-4.482v-0.526h0.686
			c0.446,0,0.781-0.159,0.781-0.893v-4.483c0-0.749-0.335-0.875-0.781-0.875h-0.686v-0.527h2.745l0.078,1.324
			c0.368-0.831,1.133-1.516,2.104-1.516c0.704,0,1.199,0.574,1.199,1.355C128.377,35.411,128.01,35.953,127.42,35.953"/>
		<path fill="#32276B" d="M132.219,41.103c-0.829,0-1.674-0.444-2.025-0.956l-0.398,0.846h-0.477v-3.156h0.477
			c0.144,1.148,0.959,2.629,2.361,2.629c0.639,0,1.309-0.349,1.309-1.065c0-1.707-4.178-1.275-4.178-3.75
			c0-1.261,0.892-2.265,2.343-2.265c0.686,0,1.387,0.287,1.835,0.781l0.462-0.668h0.368v2.792h-0.479
			c-0.319-1.534-1.102-2.267-2.123-2.267c-0.845,0-1.244,0.558-1.244,1.102c0,1.819,4.258,1.259,4.258,3.716
			C134.708,40.18,133.672,41.103,132.219,41.103"/>
		<path fill="#32276B" d="M135.601,40.881v-0.526h0.558c0.447,0,0.783-0.128,0.783-0.876v-4.5c0-0.747-0.336-0.875-0.783-0.875
			h-0.684v-0.527h2.87v5.902c0,0.748,0.335,0.876,0.783,0.876h0.685v0.526H135.601 M137.482,32.253
			c-0.479,0-0.876-0.432-0.876-0.973c0-0.544,0.398-0.974,0.876-0.974c0.479,0,0.878,0.43,0.878,0.974
			C138.36,31.821,137.961,32.253,137.482,32.253z"/>
		<path fill="#32276B" d="M143.146,41.007c-0.688,0-1.677-0.462-1.836-1.448v-5.312h-1.099v-0.574c1.021-0.21,1.738-0.8,1.832-3.254
			h0.656v3.158h2.168v0.67H142.7v4.755c0,0.7,0.302,1.081,0.875,1.081c0.64,0,0.99-0.493,0.99-1.132v-2.2h0.639v2.457
			C145.203,40.068,144.502,41.007,143.146,41.007"/>
		<path fill="#32276B" d="M153.178,34.104c-0.512,0-0.878,0.318-1.117,0.893l-2.743,6.635c-0.78,1.897-1.34,2.967-2.646,2.967
			c-0.687,0-1.245-0.558-1.245-1.308c0-0.574,0.302-1.182,0.939-1.182c0.353,0,0.703,0.385,0.703,0.862
			c0,0.367-0.159,0.734-0.478,0.973c0.878,0.286,1.882-1.212,2.376-3.302l-1.979-5.646c-0.254-0.733-0.685-0.893-1.179-0.893h-0.352
			v-0.527h4.131v0.527h-0.606c-0.444,0-0.811,0.192-0.558,0.909l1.389,3.971l1.484-3.716c0.222-0.574,0.222-1.164-0.48-1.164h-0.587
			v-0.527h3.187v0.527H153.178"/>
		<path fill="#32276B" d="M89.086,56.167c-2.92,0-4.532-2.807-4.532-5.294c0-3.033,1.917-5.614,4.547-5.614
			c3.365,0,4.626,3.461,4.626,5.423C93.728,54.157,91.637,56.167,89.086,56.167 M89.197,45.959c-2.248,0-3.031,2.377-3.031,4.897
			c0,3.764,1.755,4.608,3.078,4.608c1.754,0,2.871-1.883,2.871-4.498C92.115,48.958,91.558,45.959,89.197,45.959z"/>
		<path fill="#32276B" d="M98.799,47.584c-0.321,0-0.687-0.223-0.687-0.684c0-0.366,0.241-0.671,0.687-0.863
			c-0.096-0.127-0.321-0.19-0.446-0.19c-0.749,0-1.18,0.575-1.18,1.468c0,0.623,0.142,1.405,0.287,1.946h1.785v0.669h-1.722v4.609
			c0,0.751,0.335,0.878,0.78,0.878h0.848v0.527h-4.5v-0.527h0.687c0.446,0,0.782-0.127,0.782-0.878V49.93h-1.387v-0.669h1.338
			c-0.109-0.462-0.208-1.18-0.208-1.482c0-1.356,0.894-2.52,2.378-2.52c0.973,0,1.499,0.748,1.499,1.226
			C99.739,47.284,99.15,47.584,98.799,47.584"/>
		<path fill="#32276B" d="M89.6,71.254c-1.389,0-2.536-0.717-2.967-1.435l-0.655,1.21h-0.431v-4.641h0.527
			c0.255,2.105,1.242,4.227,3.414,4.227c1.196,0,2.057-0.669,2.057-1.817c0-3.478-6.155-1.292-6.155-5.566
			c0-1.292,1.02-2.889,3.078-2.889c1.372,0,2.137,0.479,2.744,1.15l0.477-1.15h0.414v4.419h-0.539
			c-0.208-2.185-1.101-3.78-2.92-3.78c-1.737,0-2.154,1.261-2.154,1.836c0,3.22,6.269,1.309,6.269,5.262
			C92.757,70.199,91.147,71.254,89.6,71.254"/>
		<path fill="#32276B" d="M98.179,71.029v-0.525h0.512c0.445,0,0.781-0.127,0.781-0.876v-3.973c0-0.352-0.096-1.261-1.102-1.261
			c-1.387,0-2.12,1.483-2.12,2.998v2.235c0,0.749,0.335,0.876,0.782,0.876h0.51v0.525h-4.147v-0.525h0.686
			c0.446,0,0.764-0.144,0.764-0.876v-8.183c0-0.75-0.333-0.879-0.779-0.879h-0.67v-0.525h2.856v5.073
			c0.414-0.799,1.116-1.47,2.393-1.47c1.323,0,2.12,0.926,2.232,1.77v4.214c0,0.749,0.319,0.876,0.766,0.876h0.686v0.525H98.179"/>
		<path fill="#32276B" d="M106.155,71.253c-2.553,0-3.462-1.962-3.462-3.478c0-2.057,1.183-4.242,3.333-4.242
			c1.883,0,2.904,1.708,2.938,3.732l-0.21,0.257h-4.625c0,1.931,0.764,3.141,2.232,3.141c1.565,0,2.137-1.275,2.121-2.264h0.577
			C109.107,69.754,108.291,71.253,106.155,71.253 M106.075,64.156c-1.037,0-1.754,1.067-1.915,2.742h3.351
			C107.637,65.782,107.207,64.156,106.075,64.156z"/>
		<path fill="#32276B" d="M114.096,62.097c-0.318,0-0.684-0.224-0.684-0.685c0-0.367,0.238-0.671,0.684-0.863
			c-0.093-0.143-0.43-0.286-0.795-0.286c-0.91,0-1.371,0.768-1.371,1.518c0,0.621,0.174,1.402,0.285,1.944h1.611v0.67h-1.564v5.233
			c0,0.747,0.335,0.876,0.784,0.876h0.686v0.525h-4.179v-0.525h0.525c0.447,0,0.781-0.129,0.781-0.876v-5.233h-1.229v-0.67h1.198
			c-0.112-0.462-0.208-1.181-0.208-1.484c0-1.354,1.085-2.566,2.568-2.566c1.021,0,1.85,0.686,1.85,1.326
			C115.038,61.747,114.545,62.097,114.096,62.097"/>
		<path fill="#32276B" d="M120.604,62.544c-0.509,0-0.877-0.397-0.877-0.892c0-0.352,0.208-0.75,0.543-0.941
			c-0.303-0.368-0.765-0.496-1.243-0.496c-1.675,0-2.441,1.39-2.027,3.512h1.564v0.668h-1.499v5.233
			c0,0.749,0.335,0.876,0.782,0.876h0.764v0.525h-4.258v-0.525h0.526c0.448,0,0.78-0.127,0.78-0.876v-5.233h-1.224v-0.668h1.192
			c-0.383-1.932,0.623-4.101,3.399-4.101c1.371,0,2.583,0.862,2.583,1.708C121.609,62.113,121.194,62.544,120.604,62.544
			 M119.138,71.029v-0.525h0.621c0.448,0,0.781-0.127,0.781-0.876v-4.482c0-0.751-0.333-0.88-0.781-0.88h-0.687v-0.539h2.872v5.901
			c0,0.749,0.334,0.876,0.782,0.876h0.528v0.525H119.138z"/>
		<path fill="#32276B" d="M127.194,71.253c-2.557,0-3.462-1.962-3.462-3.478c0-2.057,1.18-4.242,3.333-4.242
			c1.881,0,2.903,1.708,2.936,3.732l-0.21,0.257h-4.623c0,1.931,0.763,3.141,2.233,3.141c1.561,0,2.134-1.275,2.119-2.264h0.575
			C130.142,69.754,129.329,71.253,127.194,71.253 M127.114,64.156c-1.04,0-1.757,1.067-1.915,2.742h3.35
			C128.676,65.782,128.245,64.156,127.114,64.156z"/>
		<path fill="#32276B" d="M130.493,71.029v-0.525h0.686c0.446,0,0.783-0.127,0.783-0.876v-8.183c0-0.75-0.337-0.879-0.783-0.879
			h-0.686v-0.525h2.873v9.587c0,0.732,0.334,0.876,0.781,0.876h0.686v0.525H130.493"/>
		<path fill="#32276B" d="M141.898,71.029c-0.527,0-0.926-0.525-0.94-1.069c-0.368,0.624-1.054,1.215-2.091,1.215
			c-1.929,0-3.204-1.691-3.204-3.733c0-1.468,1.099-3.892,3.412-3.892c0.668,0,1.309,0.336,1.74,0.94v-3.045
			c0-0.75-0.337-0.879-0.783-0.879H138.5v-0.525h3.714v9.553c0,0.767,0.32,0.91,0.767,0.91h0.685v0.525H141.898 M139.074,64.204
			c-1.101,0-1.929,1.389-1.929,3.062c0,2.232,0.829,3.224,1.849,3.224c1.277,0,1.93-1.102,1.93-2.967
			C140.924,66.007,140.462,64.204,139.074,64.204z"/>
		<path fill="#32276B" d="M145.629,71.19c-0.559,0-1.004-0.465-1.004-1.024c0-0.556,0.445-1.02,1.004-1.02
			c0.557,0,1.005,0.464,1.005,1.02C146.634,70.726,146.186,71.19,145.629,71.19"/>
		<path fill="#32276B" d="M55.745,46.471c-0.084-2.511-0.975-12.923-1.023-16.674c-0.002-0.272-0.045-0.279-0.252-0.253
			c-0.119,0.014-0.342,0.037-0.654,0.067c0,0,0.018-0.326,0-0.433c-0.014-0.103-0.014-0.118-0.147-0.103
			c-0.11,0.01-0.328,0.023-0.589,0.043c0-0.289,0.002-0.572,0.009-0.848c-0.53,0.168-1.542,0.233-2.006,0.233
			c-1.868,0-2.918-0.581-4.379-0.581c-0.646,0-1.337,0.076-2.033,0.339c-0.207,0.075-0.336,0.025-0.478-0.041
			c-0.142-0.064-0.724-0.298-1.615-0.298c-1.444,0-3.427,0.641-5.113,0.641c-0.925,0-1.685-0.235-2.076-0.454
			c-0.007,0.201-0.018,0.437-0.029,0.696c-0.217-0.019-0.472-0.043-0.554-0.043c-0.128,0-0.132,0-0.132,0.149
			c0,0.13-0.011,0.247-0.021,0.433c-0.113,0-0.549-0.033-0.66-0.051c-0.141-0.023-0.167-0.009-0.167,0.243
			c0,0.185-1.24,16.888-1.24,17.244c0,0.469,0.041,0.611,0.55,0.446c0.969-0.31,5.668-1.757,9.387-1.325
			c-0.32,1.215,3.96,1.229,3.79,0.032c3.39-0.477,8.622,1.087,8.994,1.146C55.675,47.139,55.76,46.959,55.745,46.471"/>
		<path fill="#FFEA00" d="M43.823,45.465c-0.49-0.206-1.251-0.415-3.217-0.415c-3.195,0-5.428,1.013-7.046,0.784
			c-0.101-0.014-0.153-0.03-0.146-0.146c0.256-5.008,0.885-12.136,1.221-16.04c-0.108,0-0.372-0.027-0.431-0.027
			c-0.06,0-0.099,0-0.099,0.067c0,0.068-1.215,16.717-1.225,16.893c-0.009,0.177,0.038,0.254,0.174,0.226
			c0.138-0.029,3.947-1.271,7.502-1.271c0.709,0,2.135,0.106,2.226,0.117c0.088,0.01,0.047,0.059,0.038,0.129
			c-0.133,0.924,3.385,0.774,3.187,0.089c-0.017-0.072-0.038-0.168,0.081-0.189c0.117-0.019,0.934-0.146,1.92-0.146
			c2.782,0,6.936,0.967,7.093,1.009c0.158,0.037,0.177-0.102,0.177-0.228c0-0.131-0.907-16.234-0.907-16.332
			c0-0.1,0.038-0.159-0.049-0.147c-0.09,0.01-0.307,0.011-0.396,0.011c-0.053,3.019,0.83,15.708,0.83,15.808
			c0,0.099-0.031,0.1-0.109,0.117c-0.229,0.048-0.607,0.075-1.019,0.075c-1.385,0-3.837-0.779-6.082-0.779
			c-1.015,0-2.112,0.284-2.542,0.453C44.551,45.7,44.288,45.664,43.823,45.465"/>
		<path fill="#FFFFFF" d="M44.204,28.873c0.003-0.08-0.044-0.163-0.102-0.213c-0.191-0.155-0.655-0.443-1.385-0.443
			c-1.783,0-3.498,0.764-5.283,0.764c-0.672,0-1.154-0.114-1.655-0.22c-0.055,0.896-0.919,14.283-1.052,15.818
			c1.467,0.272,3.025-0.752,6.208-0.752c1.89,0,3.141,0.615,3.343,0.722c0.182,0.097,0.249,0.094,0.461-0.017
			c0.542-0.282,1.861-0.679,3.375-0.679c2.126,0,4.115,1.023,5.325,0.716c0.113-5.12-0.844-11.555-0.83-15.753
			c-0.255,0.033-1.068,0.111-1.435,0.111c-1.849,0-2.971-0.698-4.599-0.698c-0.961,0-1.592,0.342-1.804,0.494
			c-0.071,0.054-0.078,0.074-0.08,0.181c-0.034,3.25-0.033,12.078-0.162,15.14c-0.01,0.188-0.293,0.142-0.293,0.007
			C44.345,40.588,44.177,31.812,44.204,28.873"/>
		<path fill="#FFFFFF" d="M53.542,29.484c-0.001-0.062-0.029-0.092-0.089-0.083c-0.039,0.009-0.219,0.01-0.375,0.011
			c0.038,4.936,0.889,11.925,0.739,15.627c-1.388,0.264-3.361-0.674-5.823-0.674c-2.235,0-3.216,0.452-3.316,0.503
			c-0.1,0.052-0.244,0.038-0.377-0.018c-0.524-0.216-1.745-0.499-3.405-0.499c-3.582,0-4.608,0.789-6.519,0.669
			c0.264-4.379,0.787-12.365,0.965-15.925c-0.095-0.01-0.183-0.02-0.241-0.02c-0.117,0-0.11,0.021-0.117,0.108
			c-0.386,4.397-0.863,11.193-1.205,16.181c-0.009,0.119-0.02,0.119,0.057,0.13c1.982,0.248,3.657-0.74,6.74-0.74
			c1.617,0,2.684,0.187,3.526,0.533c0.314,0.127,0.517,0.121,0.849-0.029c0.755-0.348,1.686-0.465,2.553-0.465
			c2.927,0,5.273,1.01,6.86,0.771c0.081-0.011,0.08-0.068,0.08-0.136C54.443,45.358,53.621,31.958,53.542,29.484"/>
		<path fill="#DB0D15" d="M36.689,38.764c-0.183-0.006-0.281-0.118-0.392-0.125c-0.112-0.008-0.289,0.021-0.338,0.112
			c-0.043,0.143-0.14,0.098-0.14-0.029c0-0.126,0.09-3.931,0.084-4.057c-0.014-0.317-0.044-0.394-0.325-0.31
			c-0.049,0.014-0.092-0.129,0.015-0.17c0.056-0.026,0.753-0.26,0.815-0.26c0.05,0,0.057,0.042,0.057,0.107
			c0,0.076,0,0.209-0.007,0.386c0.119-0.177,0.259-0.316,0.45-0.47c0.077-0.065,0.141-0.115,0.237-0.057
			c0.353,0.21,0.833,0.935,0.789,2.49C37.92,36.886,37.225,38.792,36.689,38.764 M36.838,34.396c-0.143,0-0.268,0.163-0.387,0.384
			c-0.021,0.904-0.07,2.382-0.146,3.465c0.336,0.078,0.315,0.226,0.4,0.232c0.061,0,0.09-0.007,0.14-0.041
			c0.359-0.274,0.548-0.993,0.563-1.443C37.45,35.418,37.075,34.396,36.838,34.396z"/>
		<path fill="#32276B" d="M38.68,38.541c-0.026,0.141-0.218,0.104-0.218-0.021c0-0.127-0.063-2.115-0.084-2.244
			c-0.036-0.232-0.171-0.268-0.336-0.296c-0.059-0.008-0.086-0.119,0.013-0.169c0.057-0.028,0.76-0.296,0.822-0.296
			c0.051,0,0.057,0.045,0.057,0.108C38.94,36.008,38.842,37.788,38.68,38.541 M38.694,35.029c-0.069,0.176-0.211,0.093-0.217,0.021
			c-0.007-0.063-0.099-0.329-0.119-0.393c-0.03-0.083-0.113-0.183-0.151-0.183c-0.034,0-0.083-0.04-0.014-0.099
			c0.037-0.028,0.445-0.183,0.563-0.21c0.043-0.014,0.077,0.027,0.064,0.07C38.814,34.278,38.722,34.946,38.694,35.029z"/>
		<path fill="#32276B" d="M39.807,38.498c-0.361,0-0.655-0.232-0.74-0.344c-0.036-0.041-0.068-0.07-0.02-0.098
			c0.048-0.031,0.24-0.354,0.275-0.395c0.028-0.043,0.048,0,0.063,0.036c0.089,0.259,0.267,0.562,0.512,0.562
			c0.157,0,0.352-0.248,0.352-0.514c0-0.359-1.062-0.352-1.062-1.286c0-0.269,0.083-0.649,0.648-1.02
			c0.076-0.057,0.106-0.065,0.133-0.028c0.014,0.02,0.33,0.28,0.515,0.398c0.06,0.043,0.089,0.035,0.069,0.078
			c-0.034,0.078-0.128,0.169-0.198,0.233c-0.041,0.035-0.133,0.035-0.168,0.021c-0.132-0.063-0.351-0.254-0.43-0.363
			c-0.013-0.021-0.03-0.03-0.041-0.017c-0.141,0.119-0.163,0.262-0.163,0.442c0,0.487,1.027,0.535,1.027,1.161
			C40.58,37.803,40.29,38.498,39.807,38.498"/>
		<path fill="#32276B" d="M41.557,38.49c-0.562,0-0.821-0.661-0.821-1.356c0-0.627,0.499-1.209,0.786-1.518
			c0.07-0.079,0.119-0.102,0.149-0.065c0.013,0.021,0.302,0.367,0.461,0.492c0.022,0.021,0.177-0.008,0.136,0.079
			c-0.036,0.075-0.155,0.21-0.233,0.274c-0.062,0.048-0.189,0.062-0.239,0.021c-0.14-0.115-0.218-0.22-0.31-0.374
			c-0.015-0.021-0.036-0.027-0.041-0.012c-0.158,0.201-0.226,0.482-0.226,0.745c0,0.92,0.267,1.307,0.612,1.307
			c0.196,0,0.288-0.175,0.4-0.337c0.043-0.064,0.078,0.006,0.049,0.064C42.078,38.21,41.965,38.49,41.557,38.49"/>
		<path fill="#32276B" d="M43.146,38.49c-0.564,0-0.823-0.659-0.823-1.356c0-0.627,0.387-1.209,0.675-1.518
			c0.07-0.079,0.211-0.079,0.253-0.065c0.141,0.049,0.668,0.492,0.668,0.846c0,0.131-0.773,0.785-1.09,0.996
			c0.092,0.495,0.309,0.711,0.57,0.711c0.273,0,0.442-0.133,0.569-0.315c0.041-0.063,0.084,0.015,0.056,0.062
			C43.801,38.266,43.554,38.49,43.146,38.49 M43.069,35.939c-0.041-0.037-0.07-0.015-0.085,0.014
			c-0.14,0.238-0.201,0.554-0.201,0.844c0,0.155,0.005,0.294,0.02,0.423c0.209-0.178,0.583-0.557,0.583-0.812
			C43.386,36.25,43.21,36.051,43.069,35.939z"/>
		<path fill="#DB0D15" d="M46.086,38.709c-0.183,0-0.288-0.113-0.403-0.113c-0.111,0-0.266-0.007-0.331,0.063
			c-0.019,0.062-0.139,0.133-0.139-0.021c0-0.126-0.022-3.869-0.027-3.997c-0.015-0.259-0.1-0.336-0.333-0.294
			c-0.058,0.008-0.112-0.085-0.012-0.133c0.054-0.029,0.695-0.302,0.759-0.302c0.114,0,0.132,0.055,0.132,0.12
			c0,0.061,0,0.167,0,0.302c0.114-0.169,0.248-0.309,0.438-0.471c0.078-0.071,0.142-0.106,0.24-0.051
			c0.519,0.29,0.885,0.984,0.885,2.61C47.295,37.114,46.62,38.709,46.086,38.709 M46.072,34.312c-0.135,0-0.238,0.155-0.332,0.345
			c0,0.867-0.012,2.371-0.062,3.497c0.337,0.056,0.337,0.254,0.421,0.254c0.063,0,0.086-0.008,0.134-0.051
			c0.381-0.316,0.514-1.062,0.514-1.624C46.747,34.896,46.346,34.312,46.072,34.312z"/>
		<path fill="#32276B" d="M48.279,38.49c-0.449,0-0.793-0.702-0.793-1.419c0-0.753,0.566-1.534,0.99-1.534
			c0.495,0,0.816,0.765,0.816,1.415C49.292,37.57,48.73,38.49,48.279,38.49 M48.217,35.902c-0.196,0-0.317,0.33-0.317,0.604
			c0,0.959,0.408,1.57,0.599,1.57c0.261,0,0.371-0.289,0.371-0.592C48.87,36.648,48.485,35.902,48.217,35.902z"/>
		<path fill="#32276B" d="M50.348,38.49c-0.52,0-0.822-0.738-0.822-1.356c0-0.627,0.387-1.226,0.752-1.526
			c0.141-0.112,0.156-0.119,0.241-0.027c0.012,0.02,0.239,0.338,0.399,0.463c0.021,0.021,0.147,0.036,0.106,0.121
			c-0.035,0.077-0.134,0.183-0.211,0.244c-0.063,0.05-0.185,0.057-0.24,0.02c-0.146-0.081-0.238-0.306-0.336-0.448
			c-0.014-0.021-0.028-0.021-0.042-0.014c-0.16,0.119-0.231,0.359-0.231,0.647c0,0.923,0.315,1.464,0.661,1.464
			c0.197,0,0.325-0.142,0.429-0.295c0.049-0.071,0.099,0.028,0.063,0.082C50.917,38.174,50.757,38.49,50.348,38.49"/>
		<path fill="#32276B" d="M52.059,38.49c-0.521,0-0.902-0.618-0.902-1.25c0-0.683,0.373-1.312,0.802-1.667
			c0.077-0.063,0.175-0.036,0.216-0.022c0.27,0.093,0.685,0.661,0.685,1.033c0,0.135-0.844,0.591-1.188,0.747
			c0.11,0.484,0.387,0.732,0.646,0.732c0.253,0,0.442-0.136,0.562-0.317c0.042-0.064,0.091,0.049,0.056,0.099
			C52.684,38.21,52.464,38.49,52.059,38.49 M51.98,35.972c-0.042-0.032-0.07-0.019-0.092,0c-0.198,0.177-0.274,0.535-0.274,0.825
			c0,0.142,0.014,0.268,0.028,0.378c0.253-0.119,0.625-0.365,0.625-0.584C52.268,36.325,52.17,36.129,51.98,35.972z"/>
	</g>
</g>
</svg>
